<?xml version="1.0" encoding="utf-8"?>
<!-- Generator: Adobe Illustrator 16.0.3, SVG Export Plug-In . SVG Version: 6.00 Build 0)  -->
<!DOCTYPE svg PUBLIC "-//W3C//DTD SVG 1.1//EN" "http://www.w3.org/Graphics/SVG/1.1/DTD/svg11.dtd">
<svg version="1.1"
	 id="svg3476" xmlns:dc="http://purl.org/dc/elements/1.1/" xmlns:cc="http://creativecommons.org/ns#" xmlns:svg="http://www.w3.org/2000/svg" xmlns:inkscape="http://www.inkscape.org/namespaces/inkscape" xmlns:rdf="http://www.w3.org/1999/02/22-rdf-syntax-ns#" xmlns:sodipodi="http://sodipodi.sourceforge.net/DTD/sodipodi-0.dtd" inkscape:version="0.91 r13725" sodipodi:docname="CSS3.svg"
	 xmlns="http://www.w3.org/2000/svg" xmlns:xlink="http://www.w3.org/1999/xlink" x="0px" y="0px" width="290.188px"
	 height="329.104px" viewBox="0 80.496 290.188 329.104" enable-background="new 0 80.496 290.188 329.104" xml:space="preserve">
<sodipodi:namedview  borderopacity="1.0" fit-margin-left="0" fit-margin-top="0" showgrid="false" inkscape:zoom="0.35" bordercolor="#666666" pagecolor="#ffffff" inkscape:cx="181.367" id="base" inkscape:cy="256" inkscape:pageopacity="0.0" inkscape:pageshadow="2" inkscape:window-width="1366" inkscape:window-height="704" fit-margin-right="0" inkscape:current-layer="layer1" fit-margin-bottom="0" inkscape:window-x="0" inkscape:window-y="27" inkscape:window-maximized="1" inkscape:document-units="px">
	</sodipodi:namedview>
<g id="layer1" transform="translate(-193.633,-276.3622)" inkscape:label="Calque 1" inkscape:groupmode="layer">
	<g id="g3013" transform="translate(119,276.3622)">
		<polygon id="polygon2989" fill="#264DE4" points="364.82,80.496 338.384,376.655 219.549,409.6 101.042,376.701 74.633,80.496 		
			"/>
		<polygon id="polygon2991" fill="#2965F1" points="315.751,357.797 338.343,104.715 219.727,104.715 219.727,384.418 		"/>
		<polygon id="polygon2993" fill="#EBEBEB" points="135.175,214.573 138.431,250.902 219.727,250.902 219.727,214.573 		"/>
		<polygon id="polygon2995" fill="#EBEBEB" points="219.727,141.044 219.601,141.044 128.632,141.044 131.935,177.373 
			219.727,177.373 		"/>
		<polygon id="polygon2997" fill="#EBEBEB" points="219.727,346.719 219.727,308.922 219.567,308.965 179.108,298.04 
			176.521,269.067 156.862,269.067 140.054,269.067 145.143,326.108 219.56,346.766 		"/>
		<polygon id="polygon3005" fill="#FFFFFF" points="264.335,250.902 260.118,298.017 219.601,308.952 219.601,346.748 
			294.076,326.108 294.623,319.97 303.159,224.328 304.046,214.573 310.604,141.044 219.601,141.044 219.601,177.373 
			270.791,177.373 267.486,214.573 219.601,214.573 219.601,250.902 		"/>
	</g>
</g>
</svg>
