<?xml version="1.0" encoding="utf-8"?>
<!-- Generator: Adobe Illustrator 16.0.3, SVG Export Plug-In . SVG Version: 6.00 Build 0)  -->
<!DOCTYPE svg PUBLIC "-//W3C//DTD SVG 1.1//EN" "http://www.w3.org/Graphics/SVG/1.1/DTD/svg11.dtd">
<svg version="1.1" id="Layer_1" xmlns="http://www.w3.org/2000/svg" xmlns:xlink="http://www.w3.org/1999/xlink" x="0px" y="0px"
	 width="200px" height="200px" viewBox="0 0 200 200" enable-background="new 0 0 200 200" xml:space="preserve">
<g>
	<path fill="#0091E2" d="M185.748,84.71c-0.488-0.406-4.867-3.731-14.277-3.731c-2.434,0-4.948,0.243-7.382,0.648
		c-1.784-12.411-12.087-18.414-12.493-18.738l-2.514-1.46l-1.623,2.353c-2.027,3.164-3.568,6.732-4.461,10.383
		c-1.703,7.058-0.648,13.709,2.92,19.388c-4.299,2.433-11.275,3.001-12.735,3.082H17.995c-3,0-5.434,2.434-5.434,5.436
		c-0.163,10.058,1.541,20.116,5.028,29.608c3.975,10.382,9.897,18.088,17.522,22.793c8.598,5.273,22.632,8.273,38.45,8.273
		c7.139,0,14.277-0.647,21.334-1.945c9.816-1.785,19.224-5.191,27.904-10.141c7.139-4.137,13.547-9.41,18.982-15.574
		c9.166-10.302,14.602-21.821,18.576-32.042h1.622c9.978,0,16.143-3.975,19.55-7.382c2.271-2.108,3.975-4.705,5.191-7.625
		l0.73-2.109L185.748,84.71z"/>
	<path fill="#0091E2" d="M28.703,93.308h15.412c0.73,0,1.379-0.568,1.379-1.379v-13.79c0-0.73-0.568-1.379-1.379-1.379H28.703
		c-0.73,0-1.379,0.568-1.379,1.379v13.79C27.405,92.74,27.973,93.308,28.703,93.308z M49.956,93.308h15.412
		c0.73,0,1.379-0.568,1.379-1.379v-13.79c0-0.73-0.568-1.379-1.379-1.379H49.956c-0.73,0-1.379,0.568-1.379,1.379v13.79
		C48.658,92.74,49.225,93.308,49.956,93.308 M71.614,93.308h15.412c0.729,0,1.379-0.568,1.379-1.379v-13.79
		c0-0.73-0.568-1.379-1.379-1.379H71.614c-0.73,0-1.379,0.568-1.379,1.379v13.79C70.235,92.74,70.803,93.308,71.614,93.308z
		 M92.948,93.308h15.414c0.73,0,1.379-0.568,1.379-1.379v-13.79c0-0.73-0.568-1.379-1.379-1.379H92.948
		c-0.73,0-1.379,0.568-1.379,1.379v13.79C91.569,92.74,92.218,93.308,92.948,93.308z M49.956,73.597h15.412
		c0.73,0,1.379-0.649,1.379-1.379v-13.79c0-0.73-0.568-1.379-1.379-1.379H49.956c-0.73,0-1.379,0.568-1.379,1.379v13.79
		C48.658,72.947,49.225,73.597,49.956,73.597 M71.614,73.597h15.412c0.729,0,1.379-0.649,1.379-1.379v-13.79
		c0-0.73-0.568-1.379-1.379-1.379H71.614c-0.73,0-1.379,0.568-1.379,1.379v13.79C70.235,72.947,70.803,73.597,71.614,73.597
		 M92.948,73.597h15.414c0.73,0,1.379-0.649,1.379-1.379v-13.79c0-0.73-0.648-1.379-1.379-1.379H92.948
		c-0.73,0-1.379,0.568-1.379,1.379v13.79C91.569,72.947,92.218,73.597,92.948,73.597 M92.948,53.804h15.414
		c0.73,0,1.379-0.568,1.379-1.379v-13.79c0-0.73-0.648-1.379-1.379-1.379H92.948c-0.73,0-1.379,0.568-1.379,1.379v13.79
		C91.569,53.155,92.218,53.804,92.948,53.804 M114.444,93.308h15.413c0.73,0,1.379-0.568,1.379-1.379v-13.79
		c0-0.73-0.568-1.379-1.379-1.379h-15.413c-0.729,0-1.379,0.568-1.379,1.379v13.79C113.146,92.74,113.715,93.308,114.444,93.308"/>
</g>
</svg>
