<?xml version="1.0" encoding="utf-8"?>
<!-- Generator: Adobe Illustrator 16.0.3, SVG Export Plug-In . SVG Version: 6.00 Build 0)  -->
<!DOCTYPE svg PUBLIC "-//W3C//DTD SVG 1.1//EN" "http://www.w3.org/Graphics/SVG/1.1/DTD/svg11.dtd">
<svg version="1.1" id="Layer_1" xmlns="http://www.w3.org/2000/svg" xmlns:xlink="http://www.w3.org/1999/xlink" x="0px" y="0px"
	 width="120px" height="120px" viewBox="0 -30 120 120" enable-background="new 0 -30 120 120" xml:space="preserve">
<g>
	<path fill-rule="evenodd" clip-rule="evenodd" fill="#06988A" d="M59.682,79.978C31.852,79.585,9.614,56.921,10.005,29.35
		c0.394-27.757,23.036-49.71,50.875-49.327c27.386,0.378,49.561,23.19,49.113,50.525C109.543,58.08,86.864,80.36,59.682,79.978z
		 M37.697,37.507c6.777,0,13.135,0.093,19.487-0.049c2.342-0.052,3.209,0.35,2.936,3.011c-0.892,8.686-1.478,17.402-2.181,26.106
		c0.155,0.062,0.311,0.122,0.466,0.183c8.137-14.706,16.273-29.412,24.576-44.42c-6.984,0-13.457-0.107-19.924,0.058
		c-2.295,0.059-2.795-0.682-2.535-2.791c0.419-3.394,0.614-6.815,0.895-10.226c0.439-5.356,0.871-10.712,1.306-16.069
		c-0.17-0.042-0.34-0.083-0.511-0.125C54.119,7.817,46.026,22.449,37.697,37.507z"/>
	<path fill-rule="evenodd" clip-rule="evenodd" fill="#FBFDFD" d="M37.697,37.507C46.026,22.449,54.119,7.817,62.212-6.814
		c0.171,0.042,0.341,0.083,0.511,0.125c-0.435,5.356-0.866,10.713-1.306,16.069c-0.28,3.411-0.476,6.833-0.895,10.226
		c-0.26,2.109,0.24,2.85,2.535,2.791c6.467-0.166,12.939-0.058,19.924-0.058c-8.303,15.008-16.439,29.714-24.576,44.42
		c-0.155-0.061-0.311-0.121-0.466-0.183c0.703-8.704,1.289-17.421,2.181-26.106c0.273-2.661-0.594-3.063-2.936-3.011
		C50.832,37.6,44.474,37.507,37.697,37.507z"/>
</g>
</svg>
