<?xml version="1.0" encoding="utf-8"?>
<!-- Generator: Adobe Illustrator 16.0.3, SVG Export Plug-In . SVG Version: 6.00 Build 0)  -->
<!DOCTYPE svg PUBLIC "-//W3C//DTD SVG 1.1//EN" "http://www.w3.org/Graphics/SVG/1.1/DTD/svg11.dtd">
<svg version="1.1" id="logo_vector" xmlns="http://www.w3.org/2000/svg" xmlns:xlink="http://www.w3.org/1999/xlink" x="0px"
	 y="0px" width="200px" height="200px" viewBox="0 0 200 200" enable-background="new 0 0 200 200" xml:space="preserve">
<g>
	<path fill-rule="evenodd" clip-rule="evenodd" fill="#5CC6F7" d="M96.651,114.771c7.123-7.154,14.249-14.304,21.363-21.466
		c0.43-0.434,0.877-0.635,1.495-0.634c18.946,0.021,37.894,0.027,56.841,0.039c0.046,0,0.092,0.042,0.155,0.074
		c0.107,0.491-0.336,0.668-0.588,0.92c-16.355,16.377-32.718,32.747-49.085,49.113c-0.236,0.236-0.524,0.419-0.789,0.626
		c-0.863-0.007-1.248-0.725-1.752-1.228c-8.713-8.692-17.412-17.399-26.122-26.096C97.692,115.641,97.159,115.219,96.651,114.771z"
		/>
	<path fill-rule="evenodd" clip-rule="evenodd" fill="#33B8F5" d="M96.651,114.771c0.508,0.448,1.041,0.87,1.519,1.35
		c8.71,8.696,17.409,17.403,26.122,26.096c0.504,0.503,0.889,1.221,1.752,1.228c-0.03,0.206-0.062,0.413-0.092,0.62
		c-3.743,3.15-7.063,6.729-10.405,10.283c-2.408,2.407-4.816,4.814-7.224,7.222c-3.883,3.58-7.602,7.325-11.205,11.183
		c-0.1,0.007-0.2,0.012-0.3,0.018c-0.522,0.534-0.673-0.124-0.875-0.326c-9.275-9.254-18.532-18.527-27.807-27.782
		c-0.524-0.522-0.717-0.832-0.077-1.465C77.605,133.736,87.125,124.251,96.651,114.771z"/>
	<path fill-rule="evenodd" clip-rule="evenodd" fill="#5EC7F7" d="M176.216,5.108c-6.966,0-13.943-0.007-20.921,0.001
		c-11.122,0.014-22.243,0.037-33.365,0.057c-2.367-0.448-4.067,0.402-5.804,2.146c-30.331,30.446-60.734,60.82-91.13,91.203
		c-0.472,0.472-0.842,1.077-1.52,1.318c0,0.113,0,0.228,0,0.34c0.63,0.207,0.965,0.767,1.396,1.198
		c8.874,8.851,17.75,17.699,26.584,26.589c0.928,0.934,1.47,0.997,2.434,0.021c4.541-4.6,9.177-9.104,13.751-13.671
		c12.805-12.78,25.595-25.573,38.386-38.367c0.438-0.437,0.823-0.926,1.232-1.391c0.465-0.411,0.957-0.794,1.39-1.235
		c6.586-6.728,13.314-13.313,19.893-20.051c7.728-7.911,15.561-15.722,23.515-23.412c7.954-7.691,15.681-15.617,23.494-23.453
		C175.872,6.079,176.465,5.847,176.216,5.108z"/>
	<path fill-rule="evenodd" clip-rule="evenodd" fill="#114F96" d="M176.19,194.297c-8.533-8.445-17.07-16.885-25.607-25.325
		c-0.18-0.28-0.315-0.605-0.546-0.835c-8.023-8.031-16.055-16.052-24.085-24.073c-3.743,3.15-7.063,6.729-10.405,10.283
		c-2.408,2.407-4.816,4.814-7.224,7.222c-3.883,3.58-7.602,7.325-11.205,11.183c-0.1,0.007-0.2,0.012-0.299,0.017
		c-0.248,0.583,0.26,0.799,0.555,1.092c5.792,5.775,11.59,11.543,17.387,17.313c0.576,0.616,1.211,1.188,1.718,1.857
		c1.155,1.528,2.609,1.931,4.528,1.922c17.855-0.081,35.711-0.047,53.566-0.047c0.598,0,1.194,0,1.944,0
		C176.335,194.56,176.292,194.397,176.19,194.297z"/>
</g>
</svg>
