<?xml version="1.0" encoding="utf-8"?>
<!-- Generator: Adobe Illustrator 16.0.3, SVG Export Plug-In . SVG Version: 6.00 Build 0)  -->
<!DOCTYPE svg PUBLIC "-//W3C//DTD SVG 1.1//EN" "http://www.w3.org/Graphics/SVG/1.1/DTD/svg11.dtd">
<svg version="1.1" id="Layer_1" xmlns="http://www.w3.org/2000/svg" xmlns:xlink="http://www.w3.org/1999/xlink" x="0px" y="0px"
	 width="120px" height="120px" viewBox="0 -30 120 120" enable-background="new 0 -30 120 120" xml:space="preserve">
<g>
	<path fill="none" d="M58.773-19.974c-0.91,0.087-1.806,0.281-2.669,0.578c-0.929,0.317-1.815,0.746-2.641,1.277
		c-2.481,1.563-4.336,3.899-5.718,6.434c-0.231,0.424-0.45,0.855-0.654,1.292c-0.564,1.199-1.044,2.436-1.434,3.702
		C45.378-5.813,45.16-4.925,44.93-4.03c-0.263,1.127-0.479,2.266-0.65,3.41c-0.215,1.457-0.369,2.922-0.461,4.391
		c-0.061,0.932-0.098,1.865-0.114,2.798c-0.028,1.076-0.007,2.151,0.062,3.225c0.179,2.51,0.61,4.995,1.176,7.447
		c0.715,3.088,1.645,6.126,2.694,9.118c1.33,3.753,2.819,7.449,4.465,11.073c2.026,4.482,4.221,8.89,6.578,13.209l0.178,0.32v-70.94
		l-0.083,0.007V-19.974z"/>
	
		<linearGradient id="SVGID_1_" gradientUnits="userSpaceOnUse" x1="197.2109" y1="-311.1992" x2="270.7219" y2="-342.2711" gradientTransform="matrix(1 0 0 -1 -197.5996 -259.9902)">
		<stop  offset="0" style="stop-color:#109CF8"/>
		<stop  offset="1" style="stop-color:#935EE9"/>
	</linearGradient>
	<path fill="url(#SVGID_1_)" d="M68.002,75.959l-0.494-0.992l-0.65-1.109l-0.819-1.176l-0.928-1.178l-1.537-1.726
		c-0.747-0.787-1.523-1.548-2.327-2.28l-0.297-0.246l-0.025-0.021c-0.114-0.098-0.219-0.188-0.342-0.247
		c-0.125-0.059-0.26-0.077-0.393-0.116l-0.376-0.02c-0.267,0.059-0.517,0.176-0.734,0.336l-0.025,0.023l-0.497,0.422l-0.6,0.558
		c-1.009,0.965-1.972,1.979-2.882,3.036l-1.307,1.651l-0.745,1.135c-0.225,0.358-0.438,0.729-0.63,1.112
		c-0.159,0.312-0.301,0.632-0.429,0.958c-0.126,0.322-0.229,0.655-0.308,0.991c-0.11,0.473-0.159,0.959-0.146,1.443
		c0.013,0.9,0.194,1.793,0.533,2.629c0.317,0.786,0.78,1.506,1.365,2.119c0.451,0.477,0.963,0.891,1.522,1.23
		c0.524,0.315,1.082,0.576,1.662,0.772c0.676,0.231,1.375,0.386,2.084,0.468c0.425,0.049,0.852,0.072,1.28,0.078l0.62-0.018
		l0.56-0.041c1.217-0.109,2.4-0.451,3.488-1.003c0.411-0.21,0.801-0.46,1.165-0.746c0.972-0.741,1.726-1.729,2.183-2.86
		c0.269-0.67,0.438-1.374,0.499-2.092l0.034-0.535v-0.316l-0.019-0.361C68.417,77.191,68.254,76.559,68.002,75.959z"/>
	
		<linearGradient id="SVGID_2_" gradientUnits="userSpaceOnUse" x1="219.0645" y1="-259.5063" x2="292.5735" y2="-290.5774" gradientTransform="matrix(1 0 0 -1 -197.5996 -259.9902)">
		<stop  offset="0" style="stop-color:#109CF8"/>
		<stop  offset="1" style="stop-color:#935EE9"/>
	</linearGradient>
	<path fill="url(#SVGID_2_)" d="M95.734,6.654l-0.104-1.843l-0.117-1.285l-0.66-4.13l-0.849-3.051l-0.26-0.758l-0.794-1.985
		l-0.764-1.679l-0.379-0.745l-1.352-2.232l-0.263-0.414l-1.757-2.306l-0.412-0.457l-1.493-1.588l-1.743-1.575l-0.621-0.539
		l-2.529-1.828l-0.566-0.34L79.22-21.18l-0.917-0.462l-1.638-0.743l-1.055-0.44l-1.354-0.507l-1.115-0.38l-0.982-0.29l-3.485-0.856
		l-0.261-0.057l-3.591-0.504l-2.601-0.211l-0.426-0.024l-0.957-0.025l0.026-0.117l-0.781-0.014h-0.168l-0.906,0.01h-0.014
		l-2.441,0.132l-1.223,0.106l-1.811,0.248l-1.176,0.179l-1.736,0.346l-1.261,0.278l-3.212,0.928l-3.794,1.563l-2.548,1.33
		l-1.201,0.764l-1.687,1.13l-1.425,1.157l-1.911,1.667l-0.727,0.727l-0.888,0.975l-0.814,0.992l-0.689,0.906l-0.993,1.451
		l-0.997,1.631l-0.705,1.315l-1.035,2.262l-0.197,0.467L25.887-3.4l-0.149,0.447l-0.933,4.075L24.71,1.638l-0.396,4.005l-0.05,0.993
		l-0.007,0.315l0.039,1.835l0.085,0.979l0.248,1.612l0.249,1.439l0.322,1.315l0.397,1.363l1.15,3.225l0.315,0.818l2.004,4.185
		l0.665,1.211l2.292,3.894l0.863,1.384l3.189,4.654l0.417,0.551l4.198,5.414l1.334,1.637l4.76,5.596l0.942,0.993l3.956,4.21
		l1.546,1.59l4.996,4.916l0.042,0.04l0.561,0.493l0.206,0.189l0.05,0.046l0.05,0.051l0.384,0.237l0.064,0.027l0.712,0.028
		l0.298-0.099l0.108-0.049l0.149-0.106l0.116-0.111l0.095-0.085l1.506-1.422l2.729-2.655l5.209-5.387l1.721-1.872l2.738-3.051
		L76.7,44.01l2.52-3.043l1.704-2.124l2.484-3.294l1.275-1.728l1.766-2.618L87.908,29l2.836-4.896l1.588-3.138l1.24-2.977
		l1.339-4.138l0.087-0.396l0.583-3.294l0.1-0.814l0.024-0.386l0.037-2.059L95.734,6.654z M58.857,50.961l-0.178-0.32
		c-2.357-4.319-4.552-8.727-6.578-13.209c-1.646-3.624-3.136-7.32-4.465-11.073c-1.049-2.992-1.979-6.029-2.694-9.118
		c-0.565-2.452-0.997-4.937-1.176-7.447c-0.069-1.074-0.09-2.149-0.062-3.225c0.016-0.933,0.053-1.866,0.114-2.798
		c0.092-1.469,0.246-2.934,0.461-4.391c0.171-1.145,0.388-2.283,0.65-3.41c0.23-0.896,0.448-1.783,0.727-2.661
		c0.39-1.266,0.87-2.502,1.434-3.702c0.204-0.437,0.423-0.868,0.654-1.292c1.382-2.535,3.237-4.872,5.718-6.434
		c0.826-0.532,1.712-0.96,2.641-1.277c0.864-0.297,1.76-0.491,2.669-0.578v0.002l0.083-0.007V50.961z M90.625,9.013
		c-0.137,1.529-0.428,3.039-0.868,4.51c-0.347,1.205-0.743,2.388-1.247,3.546c-0.596,1.445-1.256,2.86-1.982,4.243
		c-1.621,3.063-3.436,6.021-5.432,8.854c-2.454,3.496-5.068,6.871-7.834,10.126c-2.884,3.408-5.887,6.712-8.999,9.911l-0.397,0.41
		c2.209-4.105,4.271-8.289,6.185-12.539c1.062-2.367,2.069-4.762,3.005-7.181c1.033-2.654,1.98-5.346,2.804-8.072
		c0.622-2.041,1.158-4.107,1.609-6.191c0.386-1.786,0.688-3.597,0.874-5.417c0.158-1.515,0.217-3.04,0.18-4.563
		c-0.017-0.932-0.053-1.862-0.107-2.791c-0.248-3.72-0.795-7.474-1.9-11.063c-0.419-1.36-0.928-2.692-1.521-3.986
		c-1.406-3.041-3.373-5.889-6.039-7.938c-0.291-0.225-0.587-0.441-0.894-0.645l0.003-0.023c1.636,0.337,3.244,0.791,4.814,1.359
		c2.233,0.819,4.381,1.881,6.355,3.208c2.688,1.795,5.005,4.087,6.832,6.753c1.07,1.576,1.983,3.275,2.646,5.051
		c0.99,2.629,1.61,5.385,1.842,8.185c0.062,0.732,0.1,1.465,0.115,2.2C90.682,7.646,90.68,8.33,90.625,9.013z"/>
</g>
</svg>
