<?xml version="1.0" encoding="utf-8"?>
<!-- Generator: Adobe Illustrator 16.0.3, SVG Export Plug-In . SVG Version: 6.00 Build 0)  -->
<!DOCTYPE svg PUBLIC "-//W3C//DTD SVG 1.1//EN" "http://www.w3.org/Graphics/SVG/1.1/DTD/svg11.dtd">
<svg version="1.1" id="Layer_1" xmlns="http://www.w3.org/2000/svg" xmlns:xlink="http://www.w3.org/1999/xlink" x="0px" y="0px"
	 width="200px" height="200px" viewBox="0 0 200 200" enable-background="new 0 0 200 200" xml:space="preserve">
<g>
	<path fill="#EFDA4F" d="M200,180c0,11-9,20-20,20H20c-11,0-20-9-20-20V20C0,9,9,0,20,0h160c11,0,20,9,20,20V180z"/>
</g>
<g>
	<path fill="#323330" d="M153.09,184.35c-7.936-0.07-15.459-1.67-22.236-6.01c-4.908-3.141-8.691-7.318-11.478-12.428
		c-0.313-0.575-0.254-0.82,0.325-1.15c4.615-2.638,9.222-5.293,13.8-7.996c0.69-0.408,0.94-0.22,1.304,0.359
		c1.484,2.376,3.195,4.586,5.411,6.322c5.841,4.576,12.349,5.408,19.259,3.051c2.92-0.997,5.096-3.005,5.791-6.164
		c0.659-2.996,0.023-5.725-2.158-7.986c-1.475-1.527-3.285-2.568-5.155-3.514c-3.759-1.898-7.673-3.447-11.522-5.139
		c-4.945-2.172-9.705-4.652-13.729-8.344c-5.021-4.604-7.523-10.379-7.978-17.107c-0.35-5.162,0.4-10.109,3.016-14.658
		c3.42-5.947,8.592-9.67,15.143-11.386c8.076-2.115,16.073-1.842,23.75,1.71c5.278,2.442,8.953,6.625,11.866,11.548
		c0.231,0.392,0.161,0.581-0.213,0.819c-4.535,2.896-9.063,5.805-13.583,8.727c-0.438,0.284-0.624,0.186-0.866-0.234
		c-0.888-1.541-1.89-3.008-3.2-4.227c-3.564-3.313-7.768-4.089-12.258-2.574c-6.523,2.199-6.307,10.027-3.1,13.277
		c1.472,1.49,3.226,2.544,5.066,3.475c3.646,1.844,7.469,3.286,11.184,4.971c4.738,2.146,9.35,4.506,13.42,7.807
		c5.947,4.822,8.91,11.109,9.271,18.702c0.246,5.19-0.491,10.177-3.106,14.751c-3.299,5.765-8.391,9.268-14.561,11.357
		C162.188,183.786,157.675,184.318,153.09,184.35z"/>
	<path fill="#323330" d="M108.741,126.115c0,10.896,0.127,21.797-0.052,32.691c-0.097,5.893-1.717,11.442-5.41,16.209
		c-3.734,4.82-8.801,7.457-14.668,8.569c-7.366,1.397-14.634,1.081-21.602-1.981c-6.391-2.81-10.896-7.574-14.015-13.746
		c-0.294-0.582-0.114-0.809,0.365-1.096c4.667-2.805,9.327-5.615,13.974-8.453c0.501-0.306,0.703-0.27,0.992,0.254
		c1.011,1.828,2.132,3.584,3.453,5.219c3.77,4.666,10.027,4.398,13.614,2.791c2.77-1.241,3.81-3.74,4.33-6.52
		c0.292-1.562,0.362-3.145,0.362-4.73c-0.002-20.719,0.006-41.438-0.026-62.157c-0.001-0.979,0.261-1.182,1.198-1.174
		c5.512,0.047,11.023,0.044,16.536,0.002c0.847-0.007,1.042,0.219,1.04,1.047c-0.027,11.024-0.02,22.049-0.02,33.075
		C108.788,126.115,108.766,126.115,108.741,126.115z"/>
</g>
</svg>
