<?xml version="1.0" encoding="utf-8"?>
<!-- Generator: Adobe Illustrator 16.0.3, SVG Export Plug-In . SVG Version: 6.00 Build 0)  -->
<!DOCTYPE svg PUBLIC "-//W3C//DTD SVG 1.1//EN" "http://www.w3.org/Graphics/SVG/1.1/DTD/svg11.dtd">
<svg version="1.1" id="Layer_1" xmlns="http://www.w3.org/2000/svg" xmlns:xlink="http://www.w3.org/1999/xlink" x="0px" y="0px"
	 width="200px" height="200px" viewBox="194.913 80.619 200 200" enable-background="new 194.913 80.619 200 200"
	 xml:space="preserve">
<g>
	<path fill="#689F63" d="M294.947,275.619c-2.544,0-5.071-0.668-7.302-1.952l-23.243-13.76c-3.472-1.941-1.777-2.628-0.633-3.023
		c4.63-1.621,5.567-1.988,10.509-4.793c0.52-0.297,1.198-0.192,1.73,0.122l17.856,10.596c0.645,0.349,1.56,0.349,2.157,0
		l69.622-40.188c0.646-0.365,1.063-1.115,1.063-1.882v-80.34c0-0.802-0.418-1.517-1.077-1.917l-69.595-40.152
		c-0.645-0.383-1.498-0.383-2.143,0l-69.581,40.152c-0.675,0.383-1.104,1.134-1.104,1.899v80.34c0,0.768,0.419,1.499,1.082,1.865
		l19.065,11.014c10.352,5.177,16.678-0.924,16.678-7.059v-79.293c0-1.134,0.889-2.004,2.022-2.004h8.817
		c1.098,0,2.004,0.87,2.004,2.004v79.33c0,13.802-7.528,21.731-20.615,21.731c-4.026,0-7.198,0-16.052-4.356l-18.265-10.527
		c-4.513-2.614-7.302-7.493-7.302-12.704v-80.34c0-5.229,2.789-10.108,7.302-12.687l69.693-40.205c4.409-2.493,10.266-2.493,14.64,0
		l69.604,40.222c4.496,2.598,7.302,7.459,7.302,12.688v80.34c0,5.211-2.806,10.072-7.302,12.687l-69.604,40.207
		c-2.231,1.289-4.759,1.951-7.338,1.951"/>
	<path fill="#689F63" d="M316.452,220.259c-30.464,0-36.851-13.983-36.851-25.713c0-1.115,0.899-2.004,2.017-2.004h8.992
		c0.993,0,1.831,0.725,1.986,1.704c1.359,9.164,5.403,13.786,23.823,13.786c14.674,0,20.913-3.315,20.913-11.097
		c0-4.479-1.777-7.808-24.572-10.037c-19.065-1.883-30.847-6.083-30.847-21.332c0-14.046,11.851-22.411,31.7-22.411
		c22.29,0,33.339,7.737,34.732,24.362c0.053,0.576-0.156,1.134-0.539,1.552c-0.384,0.4-0.925,0.646-1.482,0.646h-9.045
		c-0.94,0-1.76-0.663-1.951-1.569c-2.178-9.638-7.441-12.722-21.749-12.722c-16.016,0-17.88,5.577-17.88,9.76
		c0,5.071,2.195,6.552,23.805,9.409c21.4,2.842,31.562,6.849,31.562,21.889c0,15.162-12.652,23.858-34.716,23.858"/>
</g>
</svg>
