<?xml version="1.0" encoding="utf-8"?>
<!-- Generator: Adobe Illustrator 16.0.3, SVG Export Plug-In . SVG Version: 6.00 Build 0)  -->
<!DOCTYPE svg PUBLIC "-//W3C//DTD SVG 1.1//EN" "http://www.w3.org/Graphics/SVG/1.1/DTD/svg11.dtd">
<svg version="1.1" id="Layer_1" xmlns="http://www.w3.org/2000/svg" xmlns:xlink="http://www.w3.org/1999/xlink" x="0px" y="0px"
	 width="200px" height="200px" viewBox="0 0 200 200" enable-background="new 0 0 200 200" xml:space="preserve">
<polyline fill="none" points="-0.2,194.049 -0.2,5.926 200.16,5.926 200.16,194.049 "/>
<path fill="#04AA6D" d="M168.566,45.518c0,0,5.039,5.399,12.078,5.399c5.559,0,9.598-3.359,9.598-7.958
	c0-5.639-5.159-8.238-11.398-8.238h-3.679l-2.199-4.959l9.759-11.558c2.078-2.479,3.838-4.04,3.838-4.04s-1.559,0.08-4.719,0.08
	h-15.877V5.926h32.514v6.079l-13.037,15.077C192.802,28.122,200,33.36,200,42.599c0,9.078-6.879,17.477-18.756,17.477
	c-11.318,0-17.596-7.119-17.596-7.119L168.566,45.518z"/>
<path fill="#04AA6D" d="M105.139,56.756l42.951,76.464l21.196-37.792l-40.552-72.186H81.543L61.987,58.076L42.432,23.243H0
	l61.748,109.978l0.24-0.4l0.24,0.4L105.139,56.756z"/>
<g>
	<path fill="#04AA6D" d="M88.982,188.565c-1.929,0.965-5.788,1.929-10.731,1.929c-11.455,0-20.076-7.234-20.076-20.558
		c0-12.721,8.621-21.342,21.221-21.342c5.064,0,8.259,1.085,9.646,1.809l-1.266,4.28c-1.989-0.965-4.823-1.688-8.199-1.688
		c-9.525,0-15.855,6.089-15.855,16.76c0,9.947,5.728,16.338,15.614,16.338c3.195,0,6.451-0.663,8.561-1.688L88.982,188.565z"/>
	<path fill="#04AA6D" d="M94.832,183.501c2.351,1.447,5.788,2.652,9.405,2.652c5.365,0,8.5-2.833,8.5-6.933
		c0-3.798-2.17-5.969-7.656-8.078c-6.631-2.352-10.731-5.788-10.731-11.516c0-6.33,5.245-11.032,13.143-11.032
		c4.16,0,7.174,0.965,8.982,1.989l-1.447,4.28c-1.326-0.723-4.039-1.929-7.717-1.929c-5.547,0-7.656,3.315-7.656,6.089
		c0,3.798,2.473,5.667,8.078,7.837c6.873,2.653,10.369,5.969,10.369,11.938c0,6.27-4.641,11.695-14.227,11.695
		c-3.919,0-8.199-1.146-10.37-2.592L94.832,183.501z"/>
	<path fill="#04AA6D" d="M124.555,183.501c2.352,1.447,5.787,2.652,9.404,2.652c5.365,0,8.5-2.833,8.5-6.933
		c0-3.798-2.17-5.969-7.656-8.078c-6.631-2.352-10.73-5.788-10.73-11.516c0-6.33,5.244-11.032,13.143-11.032
		c4.16,0,7.174,0.965,8.982,1.989l-1.447,4.28c-1.326-0.723-4.039-1.929-7.717-1.929c-5.547,0-7.656,3.315-7.656,6.089
		c0,3.798,2.473,5.667,8.078,7.837c6.873,2.653,10.369,5.969,10.369,11.938c0,6.27-4.641,11.695-14.227,11.695
		c-3.92,0-8.199-1.146-10.369-2.592L124.555,183.501z"/>
</g>
</svg>
