<?xml version="1.0" encoding="utf-8"?>
<!-- Generator: Adobe Illustrator 16.0.3, SVG Export Plug-In . SVG Version: 6.00 Build 0)  -->
<!DOCTYPE svg PUBLIC "-//W3C//DTD SVG 1.1//EN" "http://www.w3.org/Graphics/SVG/1.1/DTD/svg11.dtd">
<svg version="1.1"
	 id="svg64" xmlns:dc="http://purl.org/dc/elements/1.1/" xmlns:cc="http://creativecommons.org/ns#" xmlns:svg="http://www.w3.org/2000/svg" xmlns:inkscape="http://www.inkscape.org/namespaces/inkscape" xmlns:rdf="http://www.w3.org/1999/02/22-rdf-syntax-ns#" xmlns:sodipodi="http://sodipodi.sourceforge.net/DTD/sodipodi-0.dtd" inkscape:version="0.92.2 2405546, 2018-03-11" sodipodi:docname="Javascript-shield.svg"
	 xmlns="http://www.w3.org/2000/svg" xmlns:xlink="http://www.w3.org/1999/xlink" x="0px" y="0px" width="397.318px"
	 height="454.25px" viewBox="0 105.25 397.318 454.25" enable-background="new 0 105.25 397.318 454.25" xml:space="preserve">
<rect x="46.801" y="188.474" fill="#FFFFFF" width="160.017" height="283.813"/>
<sodipodi:namedview  borderopacity="1" gridtolerance="10" fit-margin-left="0" fit-margin-top="0" showgrid="false" inkscape:zoom="1.0628712" guidetolerance="10" bordercolor="#666666" objecttolerance="10" pagecolor="#ffffff" inkscape:cx="364.99449" id="namedview66" inkscape:cy="300.83113" inkscape:pageopacity="0" inkscape:pageshadow="2" inkscape:window-width="1920" inkscape:window-height="1016" fit-margin-right="0" inkscape:current-layer="svg64" fit-margin-bottom="0" inkscape:window-x="0" inkscape:window-y="27" inkscape:window-maximized="1">
	</sodipodi:namedview>
<g>
	<rect x="169.699" y="146.142" fill="#FFFFFF" width="175.538" height="338.267"/>
	<g>
		<g id="g3768" transform="matrix(1.25,0,0,1.25,-2.5065195,174.1722)">
			<g>
				<path id="path3770_8_" inkscape:connector-curvature="0" fill="#5F8039" d="M2.859-50.435c35.341-1.488,106.128,0,106.128,0
					h117.08h92.939c0,0-19.567,214.991-28.606,322.57c-41.505,11.802-83.05,23.43-124.556,35.162
					c-5.318,2.198-10.775,0.144-15.88-1.241c-39.452-11.343-78.903-22.577-118.426-33.497
					C21.257,165.015,11.579,57.253,2.859-50.435 M161.587-22.284c-1.45,53.029-0.209,106.057-0.636,159.082
					c0.391,48.493-0.709,97.02,0.568,145.509c34.878-8.222,69.298-18.324,103.715-28.285c8.652-92.055,17.086-184.109,24.32-276.27
					C246.909-22.674,204.231-22.179,161.587-22.284"/>
			</g>
		</g>
		<g id="g3796" transform="matrix(1.25,0,0,1.25,-2.5065195,174.1722)">
			<g>
				<path id="path3798_8_" inkscape:connector-curvature="0" fill="#7FB045" d="M158.434-23.884h134.318
					c0,0-18.869,186.65-27.517,278.705c-34.419,9.961-106.801,29.084-106.801,29.084V-23.884L158.434-23.884z"/>
			</g>
		</g>
	</g>
</g>
<rect x="177.715" y="167.339" transform="matrix(-0.7071 0.7071 -0.7071 -0.7071 569.4702 421.3545)" fill="#FFFFFF" width="39.51" height="322.559"/>
<rect x="177.726" y="167.339" transform="matrix(0.7071 0.7071 -0.7071 0.7071 290.2094 -43.3895)" fill="#FFFFFF" width="39.51" height="322.559"/>
</svg>
