<?xml version="1.0" encoding="utf-8"?>
<!-- Generator: Adobe Illustrator 16.0.3, SVG Export Plug-In . SVG Version: 6.00 Build 0)  -->
<!DOCTYPE svg PUBLIC "-//W3C//DTD SVG 1.1//EN" "http://www.w3.org/Graphics/SVG/1.1/DTD/svg11.dtd">
<svg version="1.1" id="Layer_1" xmlns="http://www.w3.org/2000/svg" xmlns:xlink="http://www.w3.org/1999/xlink" x="0px" y="0px"
	 width="400px" height="300px" viewBox="0 0 400 300" enable-background="new 0 0 400 300" xml:space="preserve">
<g>
	<g>
		<path fill-rule="evenodd" clip-rule="evenodd" fill="#018E9F" d="M80.671,280.106c0-3.535,0.188-7.081-0.04-10.603
			c-0.423-6.516-0.99-13.022-1.682-19.513c-0.554-5.192-1.253-10.38-2.119-15.531c-1.336-7.952-3.678-15.662-6.144-23.322
			c-3.503-10.885-8.588-20.96-15.712-29.94c-5.291-6.671-11.241-12.64-18.24-17.607c-5.351-3.796-10.912-7.153-16.829-9.939
			c-1.177-0.555-2.116-1.608-3.525-1.699c-0.183-0.012-0.345-0.345-0.474-0.785c1.069,0.063,2.185-0.056,3.198,0.217
			c5.513,1.475,11.036,2.933,16.479,4.641c2.168,0.682,4.167,1.938,6.195,3.022c6.646,3.546,12.595,8.015,17.765,13.51
			c1.18,1.253,2.396,2.473,3.625,3.68c0.38,0.373,0.821,0.807,1.306,0.932c0.919,0.234,1.442-0.55,1.786-1.188
			c0.496-0.92,0.856-1.938,1.125-2.953c2.377-9.004,4.921-17.954,7.916-26.776c1.79-5.273,3.125-10.685,2.792-16.324
			c-0.154-2.584-0.585-5.151-0.973-7.719c-0.082-0.538-0.524-1.026-0.91-1.735c0.625-0.033,0.999-0.05,1.371-0.069
			c2.883-0.164,5.766-0.358,8.65-0.479c0.985-0.044,1.661-0.521,2.2-1.242c1.827-2.445,3.796-4.808,5.412-7.386
			c7.68-12.255,18.459-21.035,31.073-27.692c11.321-5.972,23.118-10.907,35.1-15.41c4.31-1.619,8.707-3.105,12.808-5.162
			c4.046-2.024,8.081-4.314,11.56-7.17c6.244-5.129,10.597-11.705,12.731-19.633c1.189-4.425,1.907-8.88,1.625-13.474
			c-0.045-0.672,0-1.368,0.133-2.028c0.172-0.88,0.74-1.182,1.497-0.719c0.82,0.5,1.672,1.076,2.257,1.817
			c3.006,3.832,6.1,7.612,8.855,11.622c7.646,11.121,14.272,22.854,20.2,34.975c1.453,2.972,3.538,5.34,6.321,7.114
			c1.206,0.768,2.401,1.558,3.549,2.409c2.266,1.675,4.547,3.294,6.349,5.553c1.963,2.451,4.375,4.553,6.288,7.037
			c1.774,2.307,3.181,4.902,4.699,7.397c1.212,1.996,2.715,3.718,4.55,5.163c0.433,0.338,0.832,0.724,1.218,1.12
			c4.865,4.968,9.739,9.931,14.589,14.921c3.618,3.721,8.026,6.216,12.676,8.395c26.99,12.648,54.781,23.411,82.273,34.878
			c2.096,0.876,4.214,1.696,6.299,2.601c1.265,0.547,2.562,1.135,3.269,2.409c0.27,0.482,0.413,1.179,0.286,1.694
			c-0.145,0.555-0.757,0.724-1.417,0.754c-2.326,0.111-4.511-0.502-6.676-1.191c-16.377-5.24-32.716-10.594-49.126-15.726
			c-12.138-3.799-24.32-7.448-36.563-10.891c-5.174-1.458-10.536-2.262-15.931-2.611c-0.089-0.006-0.178,0.039-0.355,0.078
			c0.891,0.981,1.774,1.894,2.584,2.869c7.073,8.542,13.69,17.423,19.846,26.649c0.66,0.984,0.826,1.894,0.638,3.216
			c-1.073-0.288-2.132-0.44-3.077-0.852c-5.418-2.355-10.774-4.852-16.214-7.145c-5.473-2.306-11.029-4.499-16.901-5.508
			c-2.572-0.444-5.301-0.087-7.957,0.024c-5.969,0.25-11.938,0.813-17.904,0.81c-9.781-0.006-19.563-0.33-29.339-0.576
			c-12.803-0.327-25.604-0.76-38.406-1.051c-6.953-0.161-13.911-0.114-20.867-0.181c-0.929-0.011-1.421,0.508-1.609,1.27
			c-0.418,1.694-0.933,3.402-1.061,5.129c-0.525,7.134-2.13,14.052-4.11,20.886c-1.526,5.265-3.271,10.466-4.971,15.678
			c-0.322,0.987-0.9,1.889-1.36,2.831c-0.103-0.033-0.205-0.063-0.308-0.097c0-0.894-0.006-1.783,0.001-2.676
			c0.035-3.973-0.047-7.949-1.005-11.819c-1.529-6.18-4.19-11.854-8.039-16.95c-0.645-0.854-1.452-1.328-2.529-1.437
			c-4.24-0.431-8.474-0.707-12.74-0.253c-2.165,0.233-3.49,1.342-4.017,3.366c-0.324,1.247-0.482,2.548-0.593,3.835
			c-0.096,1.128,0.014,2.273-0.029,3.41c-0.047,1.271-0.164,2.545-0.251,3.814c-0.105,0.05-0.21,0.097-0.314,0.145
			c-0.448-0.33-0.872-0.696-1.345-0.979c-1.582-0.957-3.152-1.934-4.778-2.807c-2.34-1.258-4.756-0.992-7.187-0.222
			c-4.319,1.367-7.447,4.312-10.081,7.8c-0.614,0.814-0.779,2.156-0.745,3.24c0.104,3.374,0.249,6.76,0.659,10.104
			c1.17,9.537,2.713,19.035,3.665,28.595c0.9,9.02,1.314,18.102,0.656,27.168c-0.421,5.792-1.221,11.559-1.882,17.334
			c-0.143,1.244-0.385,2.48-0.652,3.706c-0.101,0.475-0.396,0.907-0.603,1.356C80.993,280.176,80.832,280.143,80.671,280.106z
			 M114.236,133.247c-0.013-1.38,1.17-1.605,1.974-1.957c2.277-1.004,4.631-1.835,6.96-2.726c3.444-1.317,4.964-4.006,5.283-7.502
			c0.304-3.33,0.451-6.679,0.831-10c0.25-2.202,0.789-4.367,1.197-6.549c0.092,0.014,0.183,0.028,0.275,0.042
			c0,0.241,0.005,0.485,0,0.729c-0.13,6.499-0.268,12.995-0.39,19.491c-0.025,1.292,0.18,1.439,1.403,1.217
			c3.035-0.552,6.067-1.106,9.105-1.633c2.003-0.344,4.013-0.644,5.951-0.951c-0.107-1.428-0.194-2.875-0.325-4.317
			c-0.552-6.138-0.345-12.19,1.738-18.082c0.396-1.12,0.581-2.329,0.717-3.516c0.129-1.117-0.324-1.48-1.379-1.203
			c-4.547,1.198-9.094,2.401-13.621,3.673c-0.972,0.274-1.862,0.837-2.711,1.231c-0.349-0.058-0.746-0.235-1.09-0.164
			c-0.724,0.155-1.461,0.36-2.122,0.685c-4.457,2.19-8.889,4.43-13.343,6.624c-1.302,0.64-2.188,1.469-1.903,3.066
			c0.028,0.152-0.032,0.321-0.036,0.482c-0.154,5.553-0.417,11.106-0.406,16.657c0.005,2.512,0.458,5.041,0.898,7.525
			c0.329,1.863,0.984,3.665,1.45,5.503c0.148,0.59,0.152,1.217,0.228,1.879c-0.264-0.033-0.376-0.014-0.445-0.063
			c-0.103-0.067-0.197-0.169-0.256-0.277c-0.813-1.503-1.788-2.944-2.397-4.525c-2.047-5.323-2.513-10.874-1.756-16.485
			c0.446-3.305,1.244-6.563,1.863-9.845c0.167-0.885,0.263-1.78,0.416-2.845c-0.833,0.507-1.564,0.837-2.159,1.331
			c-2.95,2.448-5.896,4.907-8.785,7.427c-6.097,5.318-11.009,11.656-15.581,18.276c-1.267,1.841-2.339,3.704-1.521,6.061
			c0.031,0.089,0.01,0.194,0.025,0.289c0.506,3.232,1.002,6.465,1.526,9.695c0.185,1.137,0.438,2.263,0.66,3.394
			c-1.539-2.076-2.065-4.478-2.387-6.956c-0.322-2.476-0.696-4.943-1.047-7.417c-0.129-0.025-0.259-0.047-0.39-0.072
			c-0.931,2.035-1.879,4.062-2.792,6.108c-0.754,1.686-1.482,3.388-2.187,5.096c-0.187,0.458-0.399,0.987-0.338,1.447
			c0.743,5.617,0.98,11.326,3.026,16.873c0.327-0.139,0.718-0.211,0.975-0.432c1.515-1.323,2.971-2.712,4.496-4.021
			c10.092-8.661,21.085-15.762,33.799-20.045c7.291-2.456,14.65-4.475,22.327-5.157c3.979-0.355,7.964-0.749,11.954-0.851
			c4.704-0.125,9.414,0.033,14.12,0.1c1.309,0.02,2.616,0.147,3.923,0.225c0.035-0.094,0.068-0.186,0.101-0.28
			c-0.301-0.258-0.562-0.616-0.911-0.757c-1.026-0.416-2.098-0.715-3.132-1.109c-4.153-1.586-8.283-3.233-12.454-4.769
			c-1.519-0.56-3.05-1.303-4.777-0.887c-0.112,0.028-0.29-0.1-0.402-0.194c-1.544-1.303-3.433-1.708-5.341-1.811
			c-3.99-0.216-7.988-0.286-11.983-0.408c-0.671-0.019-1.342,0-2.211,0c0.244,1.614,0.477,3.161,0.71,4.708
			c-0.748-0.965-1.278-1.958-1.759-2.978c-0.469-0.99-1.216-1.397-2.285-1.197c-2.039,0.377-4.075,0.782-6.117,1.147
			C119.081,132.673,116.805,133.613,114.236,133.247z M201.242,132.928c-0.341-1.899-0.823-3.662-0.934-5.451
			c-0.22-3.435-0.25-6.884-0.311-10.33c-0.108-6.103,0.579-12.058,3.46-17.575c0.416-0.799,0.228-1.492-0.516-1.93
			c-0.688-0.411-1.431-0.84-2.201-0.993c-2.828-0.552-5.662-1.176-8.528-1.436c-4.813-0.438-9.654-0.666-14.484-0.876
			c-1.037-0.044-2.146,0.214-3.133,0.571c-3.121,1.131-4.432,3.693-4.824,6.754c-0.59,4.603-1.064,9.227-1.525,13.846
			c-0.207,2.08-0.205,4.165,1.012,6.027c1.354,2.068,3.399,3.119,5.703,3.59c7.067,1.45,14.051,3.186,20.818,5.708
			C197.574,131.506,199.36,132.205,201.242,132.928z M244.399,115.67c-0.191-0.139-0.353-0.316-0.549-0.396
			c-1.886-0.768-3.773-1.528-5.667-2.282c-2.953-1.172-5.889-2.384-8.864-3.496c-1.572-0.585-2.988-0.435-4.167,1.062
			c-1.688,2.138-2.515,4.672-3.579,7.103c-0.072,0.167-0.061,0.383-0.056,0.577c0.045,3.022,0.028,6.044,0.167,9.063
			c0.139,3.058,1.075,5.919,2.5,8.625c0.438,0.832,1.063,1.115,1.919,0.893c4.735-1.209,9.465-2.435,14.156-3.649
			c-0.261-1.309-0.51-2.398-0.685-3.499c-0.125-0.799-0.142-1.617-0.23-2.423c-0.311-2.947,0.383-5.595,2.273-7.918
			C242.577,118.151,243.459,116.912,244.399,115.67z M225.388,107.222c-0.288-0.169-0.499-0.299-0.709-0.424
			c-3.499-2.038-6.976-4.117-10.514-6.088c-1.239-0.693-1.683-0.502-2.343,0.754c-0.965,1.838-1.888,3.701-2.714,5.603
			c-0.436,1.001-0.737,2.091-0.91,3.169c-0.843,5.229-0.676,10.497-0.443,15.756c0.064,1.389,0.028,2.892,0.544,4.134
			c1.353,3.255,2.866,6.46,4.541,9.562c1.123,2.077,1.969,2.21,4.217,1.461c3.61-1.203,4.883-3.172,4.405-6.826
			c-0.058-0.449-0.127-0.904-0.255-1.336c-0.552-1.869-1.12-3.727-1.691-5.589c-1.38-4.514-1.558-9.061-0.344-13.635
			c0.63-2.356,1.83-4.286,4.126-5.378C223.988,108.057,224.637,107.641,225.388,107.222z M164.74,123.607
			c0-0.558-0.005-0.94,0.001-1.32c0.063-3.734,0.006-7.478,0.225-11.204c0.277-4.697,1.465-9.221,3.229-13.58
			c0.685-1.694,0.481-2.168-1.322-2.54c-0.254-0.053-0.514-0.081-0.773-0.089c-4.467-0.158-8.885,0.377-13.29,1.004
			c-0.436,0.061-0.969,0.565-1.156,0.992c-0.372,0.854-0.686,1.786-0.754,2.701c-0.429,5.794-0.947,11.592-1.1,17.395
			c-0.094,3.571,1.801,5.583,5.351,6.039C158.262,123.408,161.425,123.416,164.74,123.607z M76.806,182.168
			c0.029,0.038,0.058,0.08,0.086,0.119c5.399-3.95,10.72-8.019,16.221-11.821c5.56-3.849,11.524-7.043,17.615-9.981
			c6.055-2.922,12.244-5.52,18.64-7.619c6.443-2.115,13.083-3.377,19.759-4.331c6.624-0.942,13.316-1.408,19.979-2.079
			c-1.342-0.411-2.721-0.771-4.113-0.832c-4.54-0.2-9.087-0.438-13.628-0.394c-10.013,0.105-19.75,1.752-29.129,5.423
			c-5.481,2.146-10.922,4.392-15.999,7.347c-11.017,6.407-20.368,14.907-29.271,23.933C76.9,181.999,76.859,182.091,76.806,182.168z
			 M233.78,97.277c0.014-0.122,0.025-0.244,0.039-0.366c-0.452-0.044-0.932-0.022-1.355-0.161c-0.482-0.155-0.898-0.524-1.378-0.693
			c-7.993-2.795-15.934-5.745-24.34-7.15c-7.993-1.339-16.025-2.199-24.132-2.212c-5.723-0.008-11.445-0.017-17.166-0.017
			c-0.421,0-0.847,0.02-1.261,0.086c-5.381,0.887-10.76,1.791-16.14,2.678c-1.186,0.197-2.379,0.349-3.568,0.521
			c-0.005,0.138-0.011,0.271-0.017,0.41C174.502,89.248,204.212,92.35,233.78,97.277z M278.947,153.617
			c-0.405-0.264-0.704-0.433-0.981-0.635c-3.621-2.69-7.197-5.454-10.879-8.06c-3.095-2.188-6.194-4.422-10.259-4.522
			c-0.901-0.022-1.658,0.105-2.39,0.552c-0.977,0.593-1.192,2.188-0.311,2.908c0.893,0.735,1.857,1.403,2.866,1.955
			c4.899,2.675,9.882,5.199,14.723,7.974c6.243,3.576,12.026,7.826,17.464,12.536c1.018,0.883,2.115,1.4,3.479,0.93
			c0.133-1.283,0.169-1.314-1.265-3.064c-4.53-5.524-9.03-11.078-13.668-16.512c-1.803-2.116-3.921-3.968-5.934-5.897
			c-1.342-1.292-3.077-1.317-4.771-1.411c-0.077,0.097-0.155,0.191-0.235,0.289C270.807,144.939,274.821,149.22,278.947,153.617z
			 M201.622,137.4c0.561-0.607,0.948-1.217,0.081-1.713c-0.891-0.51-1.822-0.951-2.759-1.375c-4.924-2.218-10.051-3.882-15.26-5.268
			c-7.175-1.907-14.477-3.171-21.879-3.637c-4.496-0.283-9.033-0.297-13.531-0.064c-4.469,0.23-8.919,0.874-13.366,1.428
			c-2.24,0.277-4.456,0.763-6.682,1.153c0.021,0.13,0.042,0.261,0.063,0.394c0.857-0.139,1.71-0.35,2.573-0.399
			c6.29-0.391,12.579-0.826,18.875-1.095c7.19-0.308,14.363,0.064,21.477,1.206c7.558,1.214,14.883,3.316,22.08,5.883
			c1.309,0.466,2.572,1.051,3.854,1.581c-21.659-7.259-43.954-8.34-66.511-7.042c0.307,0.164,0.629,0.211,0.956,0.222
			c5.585,0.194,11.183,0.205,16.751,0.615c6.442,0.471,12.873,1.187,19.284,1.996c10.168,1.284,20.116,3.626,29.894,6.693
			c0.613,0.188,1.209,0.444,1.794,0.71c0.948,0.427,2.567,0.072,3.228-0.738C202.26,137.78,201.975,137.611,201.622,137.4z
			 M213.644,97.155c-0.038,0.1-0.077,0.2-0.116,0.3c0.41,0.266,0.804,0.579,1.242,0.793c7.372,3.609,14.733,7.233,22.13,10.791
			c5.007,2.412,10.253,4.056,15.854,4.311c1.497,0.069,3,0.008,4.497,0.008c0.017-0.122,0.033-0.244,0.05-0.369
			c-0.998-0.236-2.024-0.388-2.983-0.721c-3.799-1.317-7.589-2.653-11.345-4.078c-0.824-0.311-1.495-1.026-2.385-1.664
			c0.493-0.183,0.704-0.26,0.915-0.338c0.882-0.322,1.782-0.604,2.637-0.987c0.269-0.119,0.543-0.504,0.563-0.787
			c0.017-0.194-0.366-0.497-0.632-0.616c-0.472-0.211-0.976-0.355-1.48-0.466c-8.65-1.891-17.301-3.776-25.953-5.647
			C215.646,97.471,214.642,97.327,213.644,97.155z M278.198,134.251c-0.308,0.028-0.46,0.05-0.615,0.055
			c-5.032,0.197-10.066,0.366-15.099,0.604c-0.987,0.05-2.002,0.261-2.937,0.583c-1.469,0.51-2.883,1.175-4.316,1.78
			c-0.719,0.302-1.431,0.615-2.141,0.92c0.036,0.1,0.072,0.2,0.111,0.299c0.332-0.075,0.668-0.141,0.998-0.23
			c0.499-0.136,0.986-0.396,1.488-0.416c6.297-0.225,12.599-0.546,18.9-0.577c7.607-0.036,15.032,1.522,22.457,2.992
			c4.009,0.793,8.026,1.533,12.038,2.295c0.039-0.144,0.075-0.288,0.111-0.435c-13.619-4.134-27.234-8.271-40.851-12.404
			c-0.038,0.108-0.077,0.219-0.116,0.33C271.489,131.423,274.747,132.795,278.198,134.251z M206.28,105.63
			c-0.047-0.036-0.095-0.075-0.145-0.111c-0.266,0.23-0.588,0.421-0.793,0.696c-2.789,3.727-4.119,7.885-3.311,12.526
			c0.86,4.946,1.809,9.887,2.89,14.789c0.787,3.576,1.838,7.097,3.665,10.325c1.209,2.135,2.905,3.557,5.423,3.809
			c1.226,0.122,2.454,0.239,3.682,0.297c1.043,0.05,2.085,0.011,3.125,0.011c-0.357-0.267-0.729-0.302-1.095-0.375
			c-3.161-0.599-6.188-1.675-8.163-4.292c-1.28-1.702-2.195-3.776-2.866-5.813c-1.203-3.624-2.218-7.322-3.083-11.043
			c-1.093-4.697-2.479-9.371-2.091-14.287c0.05-0.596,0.15-1.229,0.394-1.766C204.655,108.789,205.487,107.216,206.28,105.63z
			 M203.663,27.897c-0.1,0.03-0.2,0.061-0.3,0.091c0.139,0.595,0.172,1.238,0.433,1.774c2.094,4.357,4.303,8.66,6.338,13.046
			c3.938,8.473,7.763,16.996,11.689,25.474c0.315,0.682,0.964,1.287,1.602,1.708c0.521,0.341,1.259,0.372,1.911,0.482
			c0.063,0.011,0.324-0.427,0.271-0.571c-0.479-1.303-0.954-2.614-1.533-3.873c-1.536-3.33-2.967-6.718-4.716-9.931
			c-5.011-9.208-10.156-18.346-15.252-27.509C203.974,28.35,203.813,28.127,203.663,27.897z M70.184,181.757
			c0.107,0.031,0.215,0.062,0.322,0.09c0.144-0.184,0.278-0.377,0.434-0.549c2.833-3.17,5.665-6.342,8.513-9.499
			c0.365-0.405,0.476-0.702,0.21-1.262c-0.592-1.247-1.197-2.522-1.524-3.854c-0.724-2.938-1.28-5.919-1.934-9.03
			c-0.127,0.311-0.23,0.497-0.283,0.696c-1.677,6.329-3.375,12.651-5.004,18.991C70.549,178.78,70.421,180.285,70.184,181.757z
			 M241.929,157.063c0.006-0.117,0.017-0.236,0.022-0.353c-0.727-0.175-1.486-0.261-2.168-0.538
			c-1.322-0.529-2.606-1.158-3.898-1.763c-1.408-0.66-2.645-1.509-3.313-3c-0.302-0.674-0.724-0.624-1.325-0.258
			c-1.438,0.865-2.847,1.888-4.416,2.4c-3.477,1.135-7.04,1.994-10.566,2.967c-0.258,0.069-0.507,0.167-0.757,0.25
			C224.34,157.24,233.129,155.776,241.929,157.063z M203.22,38.162c-0.045,0.011-0.086,0.022-0.128,0.033
			c0.116,0.416,0.211,0.837,0.36,1.242c0.194,0.507,0.482,0.987,0.654,1.502c1.649,4.918,3.249,9.859,4.936,14.766
			c1.361,3.954,2.816,7.879,4.247,11.811c0.095,0.261,0.271,0.643,0.472,0.685c0.983,0.208,1.984,0.325,2.982,0.469
			c0.067-0.1,0.139-0.2,0.205-0.299C212.374,58.301,207.797,48.231,203.22,38.162z M101.347,113.33
			c0.097,0.117,0.194,0.228,0.291,0.341c4.17-2.864,8.226-5.917,12.54-8.548c4.301-2.62,8.862-4.818,13.308-7.2
			c-6.495,1.464-12.669,3.685-17.864,7.979C106.767,108.262,104.099,110.848,101.347,113.33z M259.628,133.539
			c-0.027-0.125-0.055-0.247-0.08-0.369c-0.186-0.019-0.368-0.044-0.552-0.055c-4.868-0.283-9.57,0.56-14.184,2.057
			c-1.198,0.388-2.046,1.098-2.59,2.174c-0.145,0.285-0.145,0.856,0.044,1.062c1.137,1.239,2.374,2.384,3.527,3.61
			c0.848,0.901,1.963,0.932,3.327,1.223c-0.399-0.355-0.594-0.504-0.763-0.682c-0.974-1.009-2.055-1.938-2.875-3.061
			c-0.721-0.987-0.366-2.024,0.727-2.601c0.676-0.363,1.431-0.635,2.182-0.799c2.026-0.443,4.084-0.765,6.107-1.217
			C256.224,134.495,257.921,133.99,259.628,133.539z M242.267,125.057c0.089,0.034,0.173,0.064,0.259,0.094
			c-0.175,2.185,1.236,4.054,2.476,4.924c1.99,1.403,5.855,0,6.771-2.29c0.887-2.218,0.152-5.39-1.614-6.984
			c-1.999-1.8-5.272-1.373-6.626,0.97C242.952,122.775,242.681,123.957,242.267,125.057z M251.142,116.208
			c0.857,1.708,1.794,3.186,3.796,3.585c0.66,0.13,1.28,0.463,1.921,0.69c7.813,2.783,15.629,5.573,23.444,8.348
			c0.142,0.053,0.316,0.008,0.475,0.008c-9.69-4.281-19.396-8.428-29.108-12.57C251.533,116.208,251.361,116.229,251.142,116.208z
			 M243.897,96.833c-0.003,0.122-0.006,0.238-0.012,0.36c1.403,0.319,2.795,0.735,4.218,0.932c1.505,0.208,3.038,0.277,4.561,0.277
			c1.206,0,1.627-0.516,1.63-1.647c0.012-1.974-1.264-4.691-3-6.177c0,1.403,0.048,2.667-0.011,3.923
			c-0.066,1.441-0.588,1.993-2.007,2.146c-1.065,0.114-2.135,0.142-3.205,0.18C245.348,96.855,244.624,96.833,243.897,96.833z
			 M136.724,183.118c0.06-0.254,0.096-0.371,0.112-0.49c0.635-4.4,1.374-8.789,1.863-13.205c0.291-2.637,0.222-5.318,0.248-7.979
			c0.006-0.573-0.274-1.15-0.478-1.943C137.65,160.656,136.359,179.895,136.724,183.118z M235.228,145.005
			c-0.113,2.847,0.663,5.204,3.225,6.646c0.904,0.51,1.78,1.123,2.753,1.434c2.032,0.654,4.114,1.137,6.178,1.69
			c0.069-0.154,0.141-0.308,0.213-0.463C242.655,152.286,237.765,150.198,235.228,145.005z M199.033,53.865
			c-0.072,0.022-0.145,0.044-0.222,0.066c0.053,0.28,0.083,0.566,0.155,0.843c1.181,4.574,2.351,9.152,3.576,13.715
			c0.072,0.274,0.571,0.58,0.893,0.607c0.479,0.039,0.981-0.158,1.592-0.277C203.009,63.785,201.023,58.825,199.033,53.865z
			 M134.236,161.926c-1.007,1.185-0.556,14.491,0.595,20.747C134.843,175.806,135.034,168.935,134.236,161.926z M204.245,53.69
			c-0.111,0.039-0.219,0.081-0.327,0.12c1.547,4.924,3.094,9.848,4.63,14.75c0.565,0,0.981,0,1.631,0
			C208.171,63.53,206.208,58.612,204.245,53.69z M193.648,70.215c-0.887-2.97-1.713-5.72-2.534-8.47
			c-0.077,0.02-0.155,0.039-0.232,0.061c0.311,2.881,0.615,5.761,0.942,8.806C192.451,70.473,193.033,70.348,193.648,70.215z
			 M195.384,60.331c-0.083,0.017-0.172,0.034-0.255,0.05c0.205,1.076,0.38,2.162,0.627,3.227c0.427,1.824,0.82,3.665,1.386,5.451
			c0.33,1.051,0.527,1.02,1.556,0.266C197.597,66.336,196.49,63.333,195.384,60.331z M113.389,166.922
			c0.015,0.063,0.031,0.13,0.047,0.194c0.334-0.064,0.672-0.117,1.003-0.197c1.507-0.363,3.005-0.766,4.519-1.098
			c0.814-0.178,1.661-0.197,2.475-0.38c0.256-0.056,0.446-0.405,0.668-0.621c-0.31-0.062-0.645-0.235-0.919-0.163
			c-1.284,0.326-2.551,0.723-3.822,1.095C116.037,166.14,114.713,166.531,113.389,166.922z M179.836,67.611
			c-0.116,0.266-0.191,0.349-0.18,0.421c0.208,1.306,0.408,2.612,0.668,3.909c0.039,0.183,0.394,0.299,0.604,0.449
			c0.086-0.208,0.288-0.449,0.238-0.616C180.768,70.434,180.324,69.105,179.836,67.611z M174.186,69.763
			c-0.083,0.011-0.167,0.025-0.25,0.039c-0.173,2.966,0.022,3.779,1.031,3.676C174.707,72.23,174.446,70.997,174.186,69.763z"/>
		<path fill-rule="evenodd" clip-rule="evenodd" fill="#018E9F" d="M98.376,148.44c-3.05-7.341-3.061-15.093-1.008-22.951
			c0,2.556-0.026,5.118,0.007,7.674c0.033,2.595,0.044,5.196,0.217,7.785C97.764,143.528,98.124,146.098,98.376,148.44z"/>
		<path fill-rule="evenodd" clip-rule="evenodd" fill="#018E9F" d="M250.365,125.08c-0.363,1.02-0.602,2.104-1.111,3.044
			c-0.859,1.583-3.771,2.273-5.107-0.255c-0.992-1.88-0.668-3.565,0.039-5.295c0.372-0.91,1.319-1.226,2.24-1.292
			C248.431,121.137,250.174,122.917,250.365,125.08z"/>
	</g>
	<g>
		<g>
			<path fill="#018E9F" d="M173.628,234.95c0-1.022,0.153-2.195,0.455-3.521c0.302-1.325,0.732-3.033,1.29-5.124
				c0.648-2.185,1.137-4.042,1.464-5.575c0.324-1.536,0.488-2.905,0.488-4.114c0-3.161-1.395-4.741-4.184-4.741
				c-0.79,0-1.555,0.095-2.298,0.28l-5.578,26.28h-10.038l10.107-47.404c-3.114,1.304-5.519,3.255-7.214,5.858
				c-1.697,2.601-2.545,5.739-2.545,9.41c0,1.719,0.162,2.916,0.488,3.59s0.488,1.057,0.488,1.151c-2.509,0-4.38-0.524-5.611-1.569
				c-1.231-1.046-1.847-2.778-1.847-5.193c0-2.975,1.22-5.866,3.66-8.681c2.439-2.812,5.564-5.087,9.376-6.831
				c3.809-1.741,7.622-2.615,11.431-2.615c0.652,0,1.581,0.048,2.789,0.143l-4.53,21.331l7.178-9.621
				c5.717-7.713,8.598-11.547,8.645-11.503h7.319l-19.379,22.308l2.439-0.069c3.161,0,5.393,0.663,6.693,1.985
				c1.301,1.325,1.952,3.149,1.952,5.473c0,1.351-0.164,2.778-0.488,4.289c-0.324,1.509-0.79,3.38-1.395,5.611
				c-0.372,1.439-0.721,2.855-1.045,4.251c-0.325,1.395-0.488,2.556-0.488,3.487c0,1.067,0.244,2.021,0.732,2.855
				c0.488,0.838,1.151,1.42,1.988,1.744c-2.836,0.79-5.137,1.184-6.9,1.184C175.442,239.619,173.628,238.064,173.628,234.95z"/>
			<path fill="#018E9F" d="M192.313,236.135c-1.767-1.811-2.65-4.647-2.65-8.504c0-3.44,0.688-7.053,2.057-10.84
				c1.37-3.787,3.416-6.995,6.133-9.621c2.72-2.625,5.961-3.937,9.727-3.937c1.904,0,3.321,0.324,4.253,0.976
				c0.929,0.651,1.395,1.509,1.395,2.578v0.488l0.765-3.695h10.039l-5.018,23.702c-0.188,0.695-0.28,1.441-0.28,2.231
				c0,1.999,0.951,2.997,2.858,2.997c1.301,0,2.429-0.604,3.38-1.813c0.953-1.209,1.708-2.789,2.265-4.74h2.928
				c-1.719,5.021-3.845,8.425-6.376,10.213c-2.534,1.789-5.08,2.685-7.633,2.685c-1.952,0-3.521-0.547-4.708-1.639
				c-1.184-1.093-1.894-2.684-2.124-4.774c-1.35,1.904-2.847,3.449-4.497,4.636c-1.649,1.184-3.615,1.777-5.892,1.777
				C196.285,238.854,194.075,237.947,192.313,236.135z M206.915,230.453c1.14-1.092,1.919-2.589,2.334-4.496l3.347-15.754
				c0-0.604-0.232-1.194-0.695-1.777c-0.466-0.582-1.187-0.873-2.163-0.873c-1.857,0-3.532,1.081-5.018,3.244
				c-1.489,2.159-2.648,4.763-3.485,7.807c-0.838,3.045-1.256,5.729-1.256,8.052s0.338,3.81,1.012,4.461s1.5,0.976,2.476,0.976
				C204.625,232.092,205.775,231.546,206.915,230.453z"/>
			<path fill="#018E9F" d="M228.734,236.764c-1.372-1.395-2.057-3.487-2.057-6.274c0-1.161,0.186-2.673,0.557-4.532l7.458-34.926
				l10.319-1.392l-8.018,37.643c-0.187,0.695-0.277,1.441-0.277,2.231c0,0.929,0.219,1.592,0.659,1.985
				c0.441,0.396,1.173,0.593,2.196,0.593c1.348,0,2.604-0.568,3.765-1.708c1.162-1.139,1.999-2.614,2.51-4.427h2.928
				c-1.719,5.021-3.926,8.425-6.621,10.213c-2.697,1.789-5.367,2.685-8.018,2.685C231.906,238.854,230.104,238.155,228.734,236.764z
				"/>
			<path fill="#018E9F" d="M247.59,236.135c-1.766-1.811-2.65-4.647-2.65-8.504c0-3.44,0.688-7.053,2.058-10.84
				c1.369-3.787,3.416-6.995,6.133-9.621c2.72-2.625,5.961-3.937,9.726-3.937c1.905,0,3.321,0.324,4.253,0.976
				c0.929,0.651,1.395,1.509,1.395,2.578v0.488l0.766-3.695h10.039l-5.019,23.702c-0.188,0.695-0.279,1.441-0.279,2.231
				c0,1.999,0.95,2.997,2.858,2.997c1.3,0,2.429-0.604,3.379-1.813c0.954-1.209,1.708-2.789,2.266-4.74h2.928
				c-1.719,5.021-3.846,8.425-6.377,10.213c-2.534,1.789-5.079,2.685-7.633,2.685c-1.951,0-3.521-0.547-4.707-1.639
				c-1.185-1.093-1.894-2.684-2.124-4.774c-1.351,1.904-2.848,3.449-4.497,4.636c-1.649,1.184-3.615,1.777-5.892,1.777
				C251.563,238.854,249.354,237.947,247.59,236.135z M262.193,230.453c1.139-1.092,1.918-2.589,2.334-4.496l3.347-15.754
				c0-0.604-0.233-1.194-0.696-1.777c-0.466-0.582-1.187-0.873-2.162-0.873c-1.857,0-3.532,1.081-5.019,3.244
				c-1.488,2.159-2.647,4.763-3.485,7.807c-0.837,3.045-1.256,5.729-1.256,8.052s0.339,3.81,1.013,4.461s1.5,0.976,2.476,0.976
				C259.903,232.092,261.054,231.546,262.193,230.453z"/>
			<path fill="#018E9F" d="M284.016,236.764c-1.373-1.395-2.058-3.487-2.058-6.274c0-1.161,0.186-2.673,0.558-4.532l4.184-19.588
				h-2.302l0.558-2.789h2.301l2.091-9.621l10.316-1.392l-2.37,11.013h4.184l-0.558,2.789h-4.184l-4.461,20.913
				c-0.186,0.695-0.277,1.441-0.277,2.231c0,0.929,0.219,1.592,0.66,1.985c0.44,0.396,1.173,0.593,2.195,0.593
				c1.348,0,2.604-0.568,3.766-1.708c1.161-1.139,1.999-2.614,2.509-4.427h2.928c-1.719,5.021-3.926,8.425-6.62,10.213
				c-2.698,1.789-5.368,2.685-8.019,2.685C287.187,238.854,285.385,238.155,284.016,236.764z"/>
			<path fill="#018E9F" d="M303.148,236.065c-1.999-1.767-2.997-4.553-2.997-8.365c0-3.16,0.651-6.668,1.951-10.527
				c1.301-3.856,3.392-7.188,6.274-10.003c2.881-2.812,6.507-4.217,10.874-4.217c5.949,0,8.925,3.718,8.925,11.153v0.069
				c0.139,0.048,0.394,0.069,0.765,0.069c1.533,0,3.3-0.404,5.299-1.22c1.999-0.813,3.809-1.799,5.437-2.961l0.629,1.88
				c-1.35,1.441-3.102,2.662-5.265,3.662c-2.159,0.998-4.52,1.708-7.075,2.124c-0.372,4.23-1.325,7.924-2.858,11.085
				c-1.533,3.16-3.508,5.6-5.925,7.319c-2.418,1.722-5.043,2.581-7.877,2.581C307.864,238.716,305.147,237.831,303.148,236.065z
				 M317.44,230.522c1.114-1.277,2.091-3.019,2.928-5.229c0.835-2.204,1.438-4.658,1.811-7.353c-1.253-0.28-1.883-1.256-1.883-2.928
				c0-1.905,0.721-3.161,2.163-3.766c-0.095-1.533-0.327-2.589-0.699-3.171c-0.371-0.58-1.021-0.871-1.952-0.871
				c-1.533,0-3.019,1.114-4.461,3.347c-1.438,2.229-2.603,4.901-3.484,8.015c-0.885,3.114-1.325,5.856-1.325,8.227
				c0,2.231,0.255,3.729,0.768,4.497c0.511,0.765,1.439,1.15,2.789,1.15C315.209,232.441,316.323,231.801,317.44,230.522z"/>
			<path fill="#018E9F" d="M336.471,203.58h10.036l-0.903,4.322c1.577-1.395,3.008-2.462,4.286-3.205s2.659-1.117,4.147-1.117
				c1.486,0,2.659,0.513,3.521,1.533c0.859,1.022,1.289,2.257,1.289,3.695c0,1.348-0.443,2.534-1.325,3.555
				c-0.885,1.022-2.115,1.536-3.696,1.536c-1.02,0-1.707-0.244-2.054-0.732c-0.35-0.49-0.618-1.197-0.802-2.126
				c-0.142-0.604-0.28-1.049-0.419-1.326c-0.141-0.279-0.396-0.418-0.768-0.418c-0.976,0-1.802,0.199-2.473,0.593
				c-0.677,0.394-1.547,1.079-2.615,2.055l-5.578,26.491h-10.036L336.471,203.58z"/>
			<path fill="#018E9F" d="M359.438,236.764c-1.373-1.395-2.058-3.487-2.058-6.274c0-1.161,0.186-2.673,0.558-4.532l4.74-22.377
				h10.037l-5.019,23.702c-0.186,0.695-0.277,1.441-0.277,2.231c0,0.929,0.219,1.592,0.66,1.985c0.44,0.396,1.173,0.593,2.195,0.593
				c0.838,0,1.581-0.139,2.232-0.418c-0.186,2.323-1.012,4.103-2.476,5.334c-1.465,1.23-3.194,1.847-5.193,1.847
				C362.609,238.854,360.808,238.155,359.438,236.764z M365.676,198.212c-1.069-1.067-1.603-2.37-1.603-3.903
				s0.533-2.845,1.603-3.937c1.067-1.093,2.371-1.639,3.904-1.639s2.847,0.546,3.939,1.639c1.09,1.092,1.636,2.403,1.636,3.937
				s-0.546,2.836-1.636,3.903c-1.093,1.07-2.406,1.605-3.939,1.605S366.743,199.282,365.676,198.212z"/>
		</g>
	</g>
</g>
</svg>
