<?xml version="1.0" encoding="utf-8"?>
<!-- Generator: Adobe Illustrator 16.0.3, SVG Export Plug-In . SVG Version: 6.00 Build 0)  -->
<!DOCTYPE svg PUBLIC "-//W3C//DTD SVG 1.1//EN" "http://www.w3.org/Graphics/SVG/1.1/DTD/svg11.dtd">
<svg version="1.1" id="Layer_1" xmlns="http://www.w3.org/2000/svg" xmlns:xlink="http://www.w3.org/1999/xlink" x="0px" y="0px"
	 width="400px" height="70px" viewBox="0 0 400 70" enable-background="new 0 0 400 70" xml:space="preserve">
<g>
	<g>
		<g>
			<path fill="#00FF8B" d="M206.723,38.852c0,4.215-1.516,7.535-4.549,9.961s-7.253,3.639-12.659,3.639
				c-4.979,0-9.387-0.936-13.218-2.809v-9.195c3.15,1.406,5.816,2.396,7.998,2.969c2.182,0.574,4.177,0.863,5.986,0.863
				c2.171,0,3.836-0.416,4.996-1.246s1.739-2.063,1.739-3.703c0-0.916-0.256-1.729-0.767-2.441c-0.511-0.715-1.261-1.4-2.251-2.061
				c-0.989-0.66-3.007-1.713-6.05-3.159c-2.854-1.342-4.991-2.629-6.417-3.863c-1.427-1.234-2.565-2.672-3.416-4.311
				c-0.853-1.639-1.277-3.555-1.277-5.747c0-4.128,1.399-7.375,4.198-9.737c2.799-2.363,6.667-3.543,11.604-3.543
				c2.428,0,4.741,0.286,6.944,0.861c2.202,0.574,4.507,1.384,6.911,2.426l-3.192,7.695c-2.489-1.021-4.549-1.734-6.178-2.139
				c-1.628-0.404-3.229-0.606-4.805-0.606c-1.873,0-3.311,0.437-4.311,1.31c-1.001,0.873-1.501,2.01-1.501,3.416
				c0,0.873,0.202,1.633,0.606,2.282s1.048,1.277,1.932,1.884c0.883,0.607,2.976,1.698,6.273,3.273
				c4.362,2.086,7.354,4.178,8.972,6.273C205.915,33.238,206.723,35.809,206.723,38.852z"/>
			<path fill="#00FF8B" d="M229.456,44.693c1.702,0,3.746-0.371,6.129-1.117v7.248c-2.426,1.084-5.406,1.627-8.938,1.627
				c-3.896,0-6.731-0.982-8.51-2.953c-1.777-1.969-2.666-4.922-2.666-8.859V23.431h-4.661v-4.119l5.363-3.256l2.812-7.535h6.226
				v7.599h9.993v7.312h-9.993v17.21c0,1.383,0.389,2.404,1.165,3.064S228.179,44.693,229.456,44.693z"/>
			<path fill="#00FF8B" d="M275.24,33.902c0,5.811-1.532,10.355-4.599,13.633c-3.064,3.279-7.333,4.918-12.803,4.918
				c-3.427,0-6.449-0.75-9.066-2.25c-2.618-1.5-4.63-3.656-6.034-6.465s-2.107-6.088-2.107-9.834c0-5.829,1.521-10.364,4.565-13.601
				c3.044-3.234,7.321-4.853,12.835-4.853c3.427,0,6.449,0.745,9.066,2.233c2.618,1.49,4.629,3.629,6.034,6.418
				C274.536,26.89,275.24,30.157,275.24,33.902z M250.559,33.902c0,3.535,0.58,6.205,1.74,8.014
				c1.159,1.811,3.049,2.715,5.667,2.715c2.598,0,4.465-0.898,5.604-2.697c1.14-1.799,1.708-4.477,1.708-8.031
				c0-3.532-0.574-6.183-1.725-7.948c-1.149-1.766-3.032-2.65-5.65-2.65c-2.598,0-4.47,0.879-5.618,2.635
				C251.134,27.692,250.559,30.349,250.559,33.902z"/>
			<path fill="#00FF8B" d="M297.778,52.451c-11.108,0-16.664-6.098-16.664-18.293c0-6.065,1.511-10.7,4.534-13.904
				c3.021-3.202,7.354-4.805,12.993-4.805c4.129,0,7.832,0.809,11.109,2.426l-2.873,7.535c-1.532-0.617-2.959-1.123-4.278-1.517
				c-1.318-0.395-2.639-0.592-3.958-0.592c-5.065,0-7.6,3.598-7.6,10.792c0,6.98,2.533,10.473,7.6,10.473
				c1.872,0,3.607-0.25,5.204-0.75c1.596-0.5,3.192-1.283,4.789-2.348v8.334c-1.576,1-3.167,1.691-4.773,2.074
				C302.254,52.262,300.226,52.451,297.778,52.451z"/>
		</g>
		<polygon fill="#00FF8B" points="394.947,11.331 394.947,2.271 386.544,2.271 386.532,2.257 386.519,2.271 366.51,2.271 
			376.531,12.624 365.42,23.916 354.016,12.603 345.657,4.29 337.494,12.67 326.947,23.095 326.947,2.271 316.947,2.271 
			316.947,52.27 326.947,52.27 326.947,40.873 327.109,39.787 330.221,36.723 341.021,52.27 352.259,52.27 336.548,30.3 
			345.657,21.121 357.062,32.488 365.42,40.83 373.778,32.463 384.935,21.336 394.947,31.278 394.947,11.354 394.958,11.345 		"/>
	</g>
	<g>
		<path fill="#FFFFFF" d="M43.505,51.947h-9.92V31.688h-18.59v20.259H5.042V5.009h9.953v18.396h18.59V5.009h9.92V51.947z"/>
		<path fill="#FFFFFF" d="M70.826,52.59c-5.778,0-10.295-1.595-13.548-4.785c-3.254-3.188-4.88-7.705-4.88-13.548
			c0-6.015,1.503-10.664,4.511-13.949c3.007-3.286,7.164-4.93,12.473-4.93c5.073,0,9.021,1.445,11.848,4.335
			c2.824,2.889,4.237,6.882,4.237,11.976v4.751H62.32c0.106,2.783,0.931,4.955,2.472,6.518s3.702,2.344,6.485,2.344
			c2.162,0,4.206-0.225,6.132-0.674c1.927-0.449,3.938-1.166,6.036-2.151v7.577c-1.713,0.855-3.543,1.492-5.49,1.91
			C76.006,52.38,73.631,52.59,70.826,52.59z M69.447,22.345c-2.076,0-3.703,0.658-4.88,1.975c-1.178,1.316-1.852,3.185-2.022,5.603
			h13.74c-0.042-2.418-0.674-4.286-1.894-5.603S71.523,22.345,69.447,22.345z"/>
		<path fill="#FFFFFF" d="M113.143,52.59c-4.218,0-7.523-1.531-9.921-4.592h-0.514c0.342,2.997,0.514,4.73,0.514,5.201v14.544H93.43
			V16.052h7.962l1.381,4.656h0.449c2.29-3.553,5.683-5.33,10.178-5.33c4.238,0,7.556,1.639,9.952,4.913
			c2.397,3.274,3.596,7.823,3.596,13.645c0,3.832-0.561,7.159-1.685,9.984c-1.124,2.826-2.725,4.977-4.8,6.453
			C118.387,51.85,115.947,52.59,113.143,52.59z M110.253,23.212c-2.419,0-4.185,0.744-5.298,2.231s-1.69,3.944-1.733,7.369v1.059
			c0,3.853,0.572,6.614,1.718,8.283c1.145,1.67,2.959,2.505,5.441,2.505c4.388,0,6.582-3.617,6.582-10.852
			c0-3.532-0.541-6.182-1.621-7.946C114.261,24.095,112.565,23.212,110.253,23.212z"/>
		<path fill="#FFFFFF" d="M167.658,33.936c0,5.843-1.542,10.413-4.623,13.709c-3.083,3.297-7.375,4.945-12.875,4.945
			c-3.446,0-6.485-0.755-9.118-2.265c-2.633-1.509-4.655-3.676-6.068-6.501c-1.412-2.825-2.118-6.121-2.118-9.889
			c0-5.864,1.529-10.423,4.591-13.677c3.061-3.254,7.362-4.881,12.906-4.881c3.446,0,6.485,0.75,9.118,2.248
			s4.655,3.648,6.067,6.453C166.951,26.884,167.658,30.169,167.658,33.936z M142.84,33.936c0,3.553,0.583,6.239,1.75,8.059
			c1.166,1.819,3.066,2.729,5.698,2.729c2.611,0,4.489-0.904,5.636-2.713c1.145-1.809,1.717-4.499,1.717-8.074
			c0-3.554-0.578-6.218-1.733-7.995c-1.156-1.775-3.051-2.664-5.683-2.664c-2.612,0-4.495,0.883-5.65,2.648
			C143.419,27.691,142.84,30.362,142.84,33.936z"/>
	</g>
</g>
</svg>
