<?xml version="1.0" encoding="utf-8"?>
<!-- Generator: Adobe Illustrator 16.0.3, SVG Export Plug-In . SVG Version: 6.00 Build 0)  -->
<!DOCTYPE svg PUBLIC "-//W3C//DTD SVG 1.1//EN" "http://www.w3.org/Graphics/SVG/1.1/DTD/svg11.dtd">
<svg version="1.1" id="Layer_1" xmlns="http://www.w3.org/2000/svg" xmlns:xlink="http://www.w3.org/1999/xlink" x="0px" y="0px"
	 width="400px" height="70px" viewBox="0 0 400 70" enable-background="new 0 0 400 70" xml:space="preserve">
<g>
	<g>
		<path fill="#FFFFFF" d="M43.154,59.544h-9.865V39.398H14.804v20.146H4.906V12.867h9.897v18.294h18.485V12.867h9.865V59.544z"/>
		<path fill="#FFFFFF" d="M70.324,60.182c-5.747,0-10.238-1.585-13.474-4.757c-3.235-3.171-4.853-7.663-4.853-13.473
			c0-5.981,1.495-10.604,4.485-13.872c2.99-3.267,7.125-4.901,12.404-4.901c5.044,0,8.971,1.437,11.78,4.31
			s4.215,6.843,4.215,11.908v4.726h-23.02c0.106,2.767,0.926,4.928,2.458,6.481c1.532,1.554,3.683,2.331,6.449,2.331
			c2.149,0,4.183-0.223,6.098-0.67c1.916-0.447,3.917-1.16,6.003-2.139v7.535c-1.703,0.852-3.522,1.485-5.46,1.9
			C75.475,59.975,73.112,60.182,70.324,60.182z M68.951,30.108c-2.064,0-3.683,0.654-4.853,1.963
			c-1.171,1.309-1.842,3.167-2.012,5.572h13.664c-0.043-2.405-0.67-4.263-1.884-5.572C72.654,30.762,71.016,30.108,68.951,30.108z"
			/>
		<path fill="#FFFFFF" d="M112.722,23.18c1.32,0,2.416,0.096,3.289,0.287l-0.734,9.131c-0.788-0.213-1.745-0.319-2.873-0.319
			c-3.108,0-5.529,0.798-7.264,2.395c-1.735,1.596-2.603,3.831-2.603,6.705v18.166H92.8V23.85h7.375l1.437,6.003h0.479
			c1.106-2.001,2.602-3.613,4.485-4.837C108.46,23.792,110.508,23.18,112.722,23.18z"/>
		<path fill="#FFFFFF" d="M151.833,59.544l-2.746-12.483l-3.703-15.771h-0.224l-6.514,28.255h-10.472L118.022,23.85h9.705
			l4.119,15.804c0.659,2.831,1.33,6.736,2.011,11.717h0.192c0.084-1.618,0.457-4.183,1.117-7.695l0.511-2.714l4.405-17.113h10.728
			l4.183,17.113c0.085,0.469,0.219,1.161,0.399,2.076s0.356,1.889,0.526,2.921c0.17,1.033,0.324,2.043,0.463,3.033
			s0.218,1.783,0.24,2.379h0.19c0.192-1.533,0.532-3.635,1.022-6.306c0.489-2.671,0.841-4.475,1.054-5.412l4.277-15.804h9.546
			l-10.28,35.694H151.833z"/>
		<path fill="#00FF8B" d="M206.777,46.582c0,4.215-1.516,7.535-4.549,9.961s-7.253,3.639-12.659,3.639
			c-4.98,0-9.387-0.936-13.218-2.809v-9.195c3.15,1.405,5.816,2.395,7.998,2.969c2.182,0.574,4.177,0.862,5.986,0.862
			c2.171,0,3.836-0.416,4.996-1.245c1.16-0.83,1.74-2.064,1.74-3.704c0-0.915-0.256-1.729-0.767-2.442
			c-0.511-0.713-1.261-1.399-2.251-2.059c-0.989-0.66-3.007-1.713-6.05-3.161c-2.853-1.341-4.991-2.628-6.417-3.863
			c-1.427-1.234-2.565-2.671-3.416-4.31c-0.852-1.639-1.277-3.554-1.277-5.747c0-4.128,1.399-7.375,4.198-9.738
			c2.799-2.362,6.667-3.543,11.605-3.543c2.427,0,4.741,0.287,6.944,0.862c2.202,0.575,4.507,1.384,6.911,2.426l-3.192,7.695
			c-2.49-1.022-4.549-1.734-6.178-2.139c-1.628-0.404-3.229-0.606-4.805-0.606c-1.873,0-3.31,0.437-4.31,1.309
			c-1.001,0.873-1.501,2.011-1.501,3.416c0,0.873,0.202,1.634,0.606,2.283c0.404,0.649,1.048,1.277,1.932,1.884
			c0.883,0.607,2.975,1.698,6.273,3.273c4.363,2.086,7.354,4.177,8.972,6.273C205.969,40.968,206.777,43.538,206.777,46.582z"/>
		<path fill="#00FF8B" d="M229.51,52.424c1.702,0,3.746-0.372,6.129-1.118v7.248c-2.426,1.085-5.406,1.628-8.938,1.628
			c-3.896,0-6.731-0.984-8.509-2.953s-2.666-4.922-2.666-8.86V31.161h-4.661v-4.119l5.363-3.256l2.811-7.535h6.226v7.598h9.993
			v7.312h-9.993V48.37c0,1.384,0.389,2.405,1.165,3.065C227.206,52.095,228.233,52.424,229.51,52.424z"/>
		<path fill="#00FF8B" d="M275.293,41.633c0,5.811-1.532,10.355-4.598,13.633c-3.065,3.278-7.333,4.917-12.803,4.917
			c-3.427,0-6.449-0.75-9.067-2.25s-4.629-3.656-6.034-6.465c-1.404-2.809-2.107-6.087-2.107-9.833
			c0-5.831,1.521-10.365,4.565-13.601c3.044-3.235,7.322-4.853,12.835-4.853c3.427,0,6.449,0.745,9.067,2.234
			c2.618,1.49,4.629,3.629,6.034,6.417C274.59,34.62,275.293,37.887,275.293,41.633z M250.613,41.633c0,3.534,0.58,6.205,1.74,8.014
			c1.159,1.81,3.049,2.714,5.667,2.714c2.597,0,4.465-0.899,5.603-2.698c1.14-1.798,1.708-4.475,1.708-8.03
			c0-3.533-0.574-6.183-1.724-7.949s-3.033-2.65-5.651-2.65c-2.597,0-4.469,0.878-5.618,2.634
			C251.188,35.423,250.613,38.079,250.613,41.633z"/>
		<path fill="#00FF8B" d="M297.832,60.182c-11.109,0-16.665-6.098-16.665-18.294c0-6.066,1.511-10.7,4.534-13.904
			c3.021-3.203,7.354-4.805,12.994-4.805c4.129,0,7.832,0.809,11.109,2.426l-2.873,7.535c-1.532-0.617-2.959-1.123-4.278-1.517
			c-1.319-0.394-2.639-0.591-3.958-0.591c-5.066,0-7.6,3.598-7.6,10.792c0,6.981,2.533,10.472,7.6,10.472
			c1.872,0,3.607-0.25,5.204-0.75c1.596-0.5,3.192-1.282,4.789-2.347v8.333c-1.576,1-3.167,1.692-4.773,2.075
			C302.308,59.991,300.28,60.182,297.832,60.182z"/>
	</g>
	<polygon fill="#00FF8B" points="395,19.061 395,10 386.598,10 386.586,9.987 386.573,10 366.564,10 376.584,20.354 365.474,31.646 
		354.07,20.333 345.711,12.02 337.548,20.4 327,30.824 327,10 317,10 317,60 327,60 327,48.603 327.163,47.518 330.275,44.452 
		341.075,60 352.313,60 336.602,38.03 345.711,28.851 357.116,40.219 365.474,48.56 373.832,40.194 384.989,29.066 395,39.009 
		395,19.085 395.012,19.074 	"/>
</g>
</svg>
