<?xml version="1.0" encoding="utf-8"?>
<!-- Generator: Adobe Illustrator 16.0.3, SVG Export Plug-In . SVG Version: 6.00 Build 0)  -->
<!DOCTYPE svg PUBLIC "-//W3C//DTD SVG 1.1//EN" "http://www.w3.org/Graphics/SVG/1.1/DTD/svg11.dtd">
<svg version="1.1" id="Layer_1" xmlns="http://www.w3.org/2000/svg" xmlns:xlink="http://www.w3.org/1999/xlink" x="0px" y="0px"
	 width="100px" height="50px" viewBox="0 0 100 50" enable-background="new 0 0 100 50" xml:space="preserve">
<g>
	<g>
		<path fill="#DB2B33" d="M56.792,35.226c1.408,0,3.565,0,4.86,0v3.635c-1.613,0-3.498-0.068-4.86,0v4.605h6.427v3.466
			l-10.062-0.165V26.743h10.062v3.634h-6.427V35.226z"/>
		<path fill="#DB2B33" d="M37.579,30.377h-3.771v16.716c-1.227,0-2.453,0-3.634,0.046V30.377h-3.77v-3.634h11.175V30.377z"/>
		<polygon fill="#DB2B33" points="44.179,35.01 49.153,35.01 49.153,38.645 44.179,38.645 44.179,46.889 40.613,46.889 
			40.613,26.743 50.766,26.743 50.766,30.377 44.179,30.377 44.179,35.01 		"/>
		<path fill="#DB2B33" d="M79.563,47.865c1.158,0.067,2.385,0.137,3.566,0.272V26.743h-3.566V47.865z"/>
		<path fill="#DB2B33" d="M98.196,26.743l-4.61,11.061L98.196,50c-1.363-0.182-2.725-0.431-4.088-0.659l-2.612-6.722l-2.656,6.178
			c-1.318-0.228-2.59-0.296-3.907-0.478l4.679-10.651l-4.225-10.925h3.906l2.385,6.109l2.544-6.109H98.196z"/>
		<path fill="#DB2B33" d="M18.296,35.26c1.409,0,3.566-0.068,4.86-0.068v3.634c-1.612,0-3.498,0-4.86,0.069v5.404
			c2.135-0.135,4.27-0.317,6.428-0.386v3.498l-10.062,0.795V26.743h10.062v3.634h-6.428V35.26z"/>
		<g>
			<path fill="#DB2B33" d="M5.438,45.739c2.135-0.137,5.39-0.798,7.547-0.866v3.497L1.804,49.646V26.743h11.181v3.634H5.438V45.739z
				"/>
			<rect x="9.924" y="37.263" fill="#DB2B33" width="3.061" height="11.085"/>
			<polygon fill="#DB2B33" points="12.985,38.839 12.985,35.401 7.394,35.722 7.394,39.158 			"/>
		</g>
		<path fill="#DB2B33" d="M76.402,47.646c-1.294,0.009-2.611-0.146-3.974-0.196L68.272,34.57v12.696
			c-1.295-0.083-2.476-0.102-3.702-0.128V26.743h3.452l4.724,11.721V26.743h3.656V47.646L76.402,47.646z"/>
	</g>
	<g>
		<path fill="#DB2B33" d="M32.07,22.29l-0.346-0.271l0.439,0.017c0.076,0.003,0.153,0.005,0.229,0.005
			c0.681,0,1.349-0.119,1.986-0.354c0.57-0.21,1.119-0.513,1.63-0.901c0.569-0.431,1.097-0.977,1.526-1.568
			c-1.011,0.907-2.448,1.953-4.247,1.953c-0.095,0-0.191-0.002-0.286-0.008c-0.416-0.026-0.734-0.228-0.937-0.588
			c-0.155,0.261-0.424,0.521-0.781,0.521c-0.059,0-0.119-0.007-0.179-0.021c-0.841-0.205-1.714-0.648-2.655-1.353
			c0.277,0.65,0.591,1.231,0.938,1.732c0.345,0.498,0.73,0.927,1.148,1.282h2.175C32.485,22.595,32.271,22.447,32.07,22.29z"/>
		<path fill="#DB2B33" d="M43.409,9.558c0.319-0.172,0.625-0.259,0.911-0.259c0.692,0,1.258,0.484,1.682,1.438
			c0.394,0.885,0.552,1.917,0.612,2.454l0,0.004v0.003c0.081,1.484-0.313,2.11-0.896,2.472c0.227-0.032,0.416-0.096,0.574-0.229
			c0.321-0.267,0.562-0.833,0.804-1.892c0.397-1.734-1.121-4.945-1.136-4.978l-0.278-0.584l0.497,0.414
			c0.735,0.611,1.295,0.754,2.134,0.815l0.11,0.007l0.019,0.109c0.068,0.383,0.297,0.729,0.697,1.051
			c-0.084-0.375-0.19-0.816-0.292-0.922l-0.23-0.245l0.335,0.006c0.401,0.006,0.769,0.172,1.159,0.523
			c0.381,0.344,0.799,0.878,1.313,1.683c0.623,0.972,1.465,1.685,2.574,2.177c0.552,0.245,1.129,0.42,1.708,0.556
			c-2.344-1.201-3.71-3.244-4.66-4.979c-0.589-0.749-1.153-1.098-1.774-1.098c-0.453,0-0.898,0.189-1.313,0.394l-0.075,0.038
			l-0.069-0.048c-0.765-0.532-1.661-1.075-2.504-1.075l0,0c-0.516,0-0.956,0.202-1.345,0.616C43.594,8.41,43.366,9.063,43.409,9.558
			z"/>
		<path fill="#DB2B33" d="M51.188,13.773c0.586,0.609,1.285,0.963,1.989,1.011c-1.074-0.494-2.087-1.35-2.858-2.414
			C50.491,12.869,50.793,13.363,51.188,13.773z"/>
		<path fill="#DB2B33" d="M53.892,16.342c-1.909-0.029-3.522-0.966-5.016-2.927h0c0.566,1.205,1.674,2.662,3.213,4.214l0.096,0.098
			l-0.094,0.1c-0.391,0.413-1.716,1.907-2.38,3.798l-0.149,0.426l-0.121-0.435c-0.232-0.833-0.789-2.418-1.899-3.67l-0.064-0.073
			l0.044-0.085c0.455-0.897,0.681-1.82,0.67-2.745c-0.004-0.418-0.058-0.843-0.159-1.271c0.083,1.575-0.495,2.865-1.73,3.849
			c1.111,1.526,1.973,3.322,2.691,5.114h1.476C51.175,20.518,52.281,18.463,53.892,16.342z"/>
		<path fill="#DB2B33" d="M44.491,21.598l-0.319-0.504l0.512,0.306c0.609,0.363,1.132,0.806,1.623,1.335h0.599
			c-0.449-1.082-1.01-2.184-1.691-3.328c-0.929-1.559-2.07-3.175-3.489-4.944c-0.292-0.365-0.407-0.69-0.338-0.968
			c0.152-0.624,1.137-0.777,1.724-0.812c-0.907-0.906-1.707-1.938-2.484-2.94c-1.294-1.669-2.633-3.395-4.454-4.504
			c-3.588-0.438-4.666-2.861-5.672-5.237c0.008,0.771,0.081,1.486,0.221,2.171c0.201,0.982,0.535,1.877,1.02,2.735
			c0.521,0.921,1.227,1.8,2.099,2.61c0.668,0.621,1.454,1.222,2.344,1.792c-0.084-0.076-0.168-0.152-0.251-0.228
			c-1.296-1.173-2.637-2.385-2.939-3.938l-0.061-0.314l0.274,0.166c0.694,0.421,1.378,0.554,2.102,0.693
			c0.115,0.022,0.233,0.045,0.35,0.069l0.034,0.006l0.026,0.021c1.785,1.424,3.234,3.186,4.534,4.876l0.011,0.015l0.008,0.017
			c0.315,0.762,0.003,1.478-0.36,1.86c-0.091,0.095-0.188,0.174-0.289,0.235l-0.081,0.048l-0.077-0.056
			c-0.196-0.145-0.393-0.29-0.59-0.436c-1.89-1.396-3.844-2.839-6.043-3.719c-3.208-1.284-3.967-2.859-4.771-4.527
			c-0.033-0.069-0.066-0.138-0.1-0.207c0.161,0.669,0.356,1.228,0.612,1.766c0.462,0.973,1.134,1.863,2.054,2.721l0.362,0.337
			l-0.486-0.094c-0.835-0.162-1.626-0.244-2.351-0.244c-0.476,0-0.928,0.035-1.343,0.106c-0.368,0.062-0.725,0.094-1.061,0.094
			c-1.5,0-2.689-0.618-3.619-1.887c0.013,0.073,0.026,0.148,0.04,0.223c0.239,1.355,0.486,2.756,1.683,3.673
			c1.297,0.991,3.19,1.71,5.628,2.136c1.436,0.251,2.878,0.369,4.109,0.427c-1.532-0.333-3.153-0.76-4.858-1.396l-0.052-0.019
			l-0.025-0.05c-0.145-0.283-0.266-0.486-0.502-0.503c-0.041-0.003-0.078-0.005-0.111-0.005c-0.227,0-0.296,0.061-0.439,0.235
			l-0.064,0.079l-0.095-0.036c-0.036-0.013-0.89-0.333-1.363-0.547c-0.448-0.203-0.774-0.423-0.999-0.673l-0.156-0.174l0.227-0.059
			c0.275-0.07,0.616-0.12,0.943-0.164c0.108-0.014,0.222-0.03,0.343-0.047c1.036-0.142,2.455-0.336,3.855-0.336
			c1.645,0,2.806,0.268,3.549,0.818c0.146,0.1,0.292,0.198,0.436,0.295c3.019,2.038,5.403,3.646,7.706,6.482
			c0.187,0.23,0.621,0.93,0.775,1.5c0.065,0.24,0.074,0.429,0.027,0.579l-0.037,0.119l-0.124-0.022
			c-0.777-0.142-2.063-1.109-2.76-1.673c-0.328-0.263-0.65-0.54-0.909-0.779c-0.691-0.635-1.93-1.27-3.49-1.787
			c-1.573-0.521-3.411-0.901-5.176-1.068c-0.447,0.082-0.919,0.123-1.44,0.123c-1.367,0-2.773-0.279-4.134-0.548
			c-0.263-0.052-0.516-0.102-0.765-0.15c1.18,1.966,2.854,3.322,5.109,4.138c1.008,0.364,2.134,0.626,3.442,0.799
			c0.632,0.083,1.304,0.146,2.051,0.191c-2.068-0.563-3.748-1.56-5.008-2.975l-0.17-0.191l0.252-0.043
			c0.449-0.078,0.946-0.118,1.477-0.118c2.471,0,5.846,0.88,7.815,2.848c0.15,0.15,0.292,0.306,0.418,0.463l0.026,0.032l0.005,0.042
			l0.014,0.14c0.04,0.381,0.081,0.775,0.123,1.164c0.105,0.969,0.223,1.935,0.381,2.897h0.938c-0.11-0.722-0.195-1.458-0.265-2.216
			c-0.016-0.168-0.031-0.34-0.046-0.524l-0.028-0.327l0.257,0.203l1.404,1.111l0.056,0.044l-0.002,0.07
			c-0.016,0.544,0,1.091,0.045,1.638h2.995C44.973,22.34,44.721,21.959,44.491,21.598z"/>
		<path fill="#DB2B33" d="M57.639,21.097l-0.002-0.07l0.056-0.044l1.404-1.111l0.258-0.203l-0.028,0.327
			c-0.075,0.896-0.165,1.809-0.307,2.74h0.935c0.223-1.359,0.365-2.718,0.503-4.047l0.017-0.154l0.004-0.042l0.026-0.032
			c0.066-0.082,0.138-0.165,0.211-0.246c1.913-2.106,5.501-3.065,8.023-3.065c0.53,0,1.027,0.04,1.477,0.118l0.252,0.044l-0.17,0.19
			c-1.26,1.415-2.94,2.412-5.008,2.976c0.747-0.045,1.419-0.108,2.052-0.192c1.308-0.173,2.434-0.435,3.442-0.799
			c2.253-0.816,3.928-2.172,5.108-4.138c-0.25,0.048-0.502,0.098-0.766,0.15c-1.36,0.269-2.767,0.548-4.133,0.548
			c-0.521,0-0.993-0.041-1.44-0.123c-1.767,0.168-3.604,0.548-5.177,1.068c-1.56,0.517-2.8,1.151-3.489,1.787
			c-0.215,0.197-0.481,0.428-0.752,0.651c-0.596,0.49-2.069,1.646-2.918,1.801l-0.124,0.022l-0.037-0.119
			c-0.069-0.222-0.014-0.55,0.166-0.974c0.197-0.464,0.49-0.926,0.637-1.106c2.304-2.835,4.688-4.444,7.707-6.482
			c0.144-0.098,0.288-0.196,0.436-0.295c0.741-0.55,1.903-0.818,3.548-0.818c1.399,0,2.818,0.194,3.854,0.337
			c0.122,0.016,0.235,0.032,0.344,0.046c0.327,0.044,0.668,0.094,0.943,0.164l0.227,0.059l-0.156,0.174
			c-0.224,0.25-0.551,0.471-0.999,0.673c-0.472,0.214-1.327,0.534-1.362,0.547l-0.096,0.036l-0.064-0.078
			c-0.143-0.175-0.213-0.236-0.438-0.236c-0.033,0-0.071,0.002-0.111,0.005c-0.235,0.018-0.356,0.22-0.502,0.503l-0.024,0.05
			l-0.052,0.019c-1.706,0.636-3.327,1.063-4.859,1.397c1.231-0.06,2.674-0.177,4.11-0.428c2.438-0.426,4.331-1.144,5.627-2.136
			c1.197-0.917,1.444-2.317,1.684-3.673c0.013-0.075,0.026-0.15,0.039-0.223c-0.929,1.269-2.119,1.887-3.618,1.887
			c-0.336,0-0.694-0.032-1.063-0.095c-0.415-0.071-0.865-0.106-1.342-0.106c-0.726,0-1.517,0.083-2.352,0.245l-0.485,0.094
			l0.361-0.337c0.92-0.858,1.592-1.748,2.054-2.721c0.257-0.539,0.452-1.097,0.613-1.766c-0.034,0.069-0.067,0.138-0.101,0.206
			c-0.804,1.669-1.563,3.244-4.771,4.528c-2.199,0.88-4.153,2.323-6.043,3.719c-0.197,0.146-0.395,0.291-0.592,0.436l-0.076,0.056
			l-0.081-0.049c-0.156-0.094-0.304-0.233-0.428-0.402c-0.369-0.504-0.451-1.136-0.221-1.693l0.008-0.017l0.012-0.015
			c1.299-1.691,2.747-3.452,4.533-4.876l0.026-0.021l0.034-0.006c0.116-0.024,0.235-0.047,0.35-0.069
			c0.724-0.14,1.407-0.272,2.102-0.693l0.273-0.166l-0.061,0.313c-0.303,1.553-1.644,2.766-2.939,3.938
			c-0.084,0.075-0.168,0.151-0.251,0.228c0.89-0.57,1.676-1.171,2.344-1.792c0.871-0.812,1.576-1.689,2.098-2.61
			c0.485-0.858,0.819-1.753,1.021-2.736C69.259,1.488,69.331,0.772,69.34,0c-1.007,2.377-2.084,4.801-5.674,5.24
			c-1.821,1.109-3.159,2.835-4.454,4.504c-0.776,1.001-1.578,2.034-2.484,2.941c0.488,0.029,1.274,0.141,1.598,0.552
			c0.138,0.175,0.179,0.382,0.122,0.614c-0.045,0.188-0.158,0.394-0.333,0.612c-0.941,1.173-1.749,2.264-2.468,3.335
			c-1.157,1.722-2.055,3.354-2.711,4.937h0.597c0.491-0.529,1.015-0.972,1.623-1.335l0.513-0.306l-0.32,0.504
			c-0.229,0.362-0.48,0.743-0.743,1.137h2.989C57.639,22.188,57.655,21.641,57.639,21.097z"/>
		<path fill="#DB2B33" d="M70.534,21.563c0.348-0.5,0.662-1.082,0.938-1.732c-0.941,0.704-1.813,1.148-2.655,1.353
			c-0.06,0.014-0.12,0.022-0.179,0.022c-0.356,0-0.625-0.261-0.78-0.521c-0.203,0.36-0.521,0.562-0.937,0.587
			c-0.096,0.006-0.191,0.009-0.286,0.009c-1.8,0-3.235-1.048-4.247-1.954l0,0c0.43,0.592,0.958,1.137,1.526,1.568
			c0.512,0.388,1.06,0.692,1.63,0.901c0.638,0.235,1.306,0.354,1.986,0.354c0.075,0,0.152-0.001,0.229-0.003l0.44-0.017l-0.347,0.27
			c-0.149,0.117-0.306,0.228-0.469,0.335h2.129C69.883,22.402,70.225,22.01,70.534,21.563z"/>
	</g>
</g>
</svg>
