<?xml version="1.0" encoding="utf-8"?>
<!-- Generator: Adobe Illustrator 16.0.3, SVG Export Plug-In . SVG Version: 6.00 Build 0)  -->
<!DOCTYPE svg PUBLIC "-//W3C//DTD SVG 1.1//EN" "http://www.w3.org/Graphics/SVG/1.1/DTD/svg11.dtd">
<svg version="1.1" id="Layer_1" xmlns="http://www.w3.org/2000/svg" xmlns:xlink="http://www.w3.org/1999/xlink" x="0px" y="0px"
	 width="100px" height="100px" viewBox="0 0 100 100" enable-background="new 0 0 100 100" xml:space="preserve">
<path d="M67.968,88.021c-1.698-4.846-1.345-15.562-2.44-20.532c-0.004-0.022-0.016-0.05-0.021-0.071L77.63,55.296l-4.756-4.755
	L62.504,60.91c-0.551-1.003-1.064-1.938-1.413-2.67c-1.128-2.376-3.437-7.606-5.042-11.273c2.321-1.807,3.838-4.581,3.965-7.717
	l12.09,2L61.375,6.126l-5.688,14.647L50,4.126l-5.687,16.647L38.626,6.126L27.895,41.249l11.521-2
	c0.136,3.327,1.833,6.249,4.394,8.039c-1.598,3.646-3.807,8.646-4.901,10.952c-0.347,0.73-0.857,1.669-1.406,2.679L27.125,50.541
	l-4.754,4.755l12.141,12.142c-0.01,0.041-0.03,0.092-0.039,0.131c-1.097,4.977-0.742,15.649-2.441,20.494
	c-0.453,1.293-2.969,2.965-3.422,4.258c-0.637,1.816,0,7.683,0,7.683h42.781c0-0.002,0.637-5.886,0-7.702
	C70.938,91.007,68.422,89.314,67.968,88.021z"/>
<g>
	<path d="M29.787,62.316l8.807-9.604l-22.182-8.551l0.081,12.647c-4.843,1.197-9.316,5.143-11.5,10.809
		c-3.273,8.492-0.168,17.6,6.938,20.338c7.104,2.738,15.52-1.928,18.793-10.42C32.819,72.1,32.291,66.424,29.787,62.316z
		 M16.299,79.98l-0.847,2.195l-2.456-0.947l0.772-2.002c-1.482-0.645-2.79-1.619-3.464-2.373l1.865-2.721
		c0.787,0.848,1.939,1.836,3.405,2.4c1.098,0.424,1.968,0.412,2.234-0.277c0.257-0.668-0.209-1.316-1.633-2.438
		c-2.036-1.65-3.272-3.387-2.434-5.563c0.756-1.961,2.712-2.988,5.358-2.535l0.764-1.982l2.455,0.945l-0.698,1.811
		c1.463,0.637,2.358,1.328,2.988,1.941l-1.794,2.602c-0.49-0.463-1.333-1.357-2.97-1.988c-1.271-0.49-1.833-0.186-2.016,0.287
		c-0.208,0.539,0.367,1.229,1.927,2.574c2.374,1.928,2.892,3.537,2.136,5.498C21.12,79.412,19.059,80.523,16.299,79.98z"/>
	<path d="M83.905,57l-0.062-13.031l-22.087,8.792l8.649,9.227c-2.739,4.17-3.341,10.103-1.096,15.743
		c3.367,8.458,11.832,13.029,18.906,10.213c7.075-2.817,10.08-11.957,6.714-20.414C92.775,62.121,88.533,58.311,83.905,57z
		 M86.006,79.123l0.87,2.189l-2.445,0.972l-0.795-1.994c-1.525,0.534-3.147,0.707-4.153,0.612l-0.479-3.264
		c1.152,0.088,2.67,0.031,4.13-0.551c1.094-0.437,1.724-1.035,1.45-1.721c-0.265-0.666-1.048-0.825-2.854-0.68
		c-2.615,0.172-4.702-0.265-5.565-2.43c-0.777-1.953-0.04-4.035,2.21-5.5l-0.786-1.975l2.443-0.973l0.719,1.803
		c1.506-0.527,2.632-0.628,3.511-0.605l0.45,3.127c-0.674-0.008-1.898-0.09-3.529,0.561c-1.266,0.504-1.472,1.106-1.284,1.578
		c0.214,0.537,1.104,0.653,3.163,0.58c3.053-0.197,4.525,0.633,5.303,2.586C89.156,75.434,88.399,77.649,86.006,79.123z"/>
</g>
</svg>
