<?xml version="1.0" encoding="utf-8"?>
<!-- Generator: Adobe Illustrator 16.0.3, SVG Export Plug-In . SVG Version: 6.00 Build 0)  -->
<!DOCTYPE svg PUBLIC "-//W3C//DTD SVG 1.1//EN" "http://www.w3.org/Graphics/SVG/1.1/DTD/svg11.dtd">
<svg version="1.1" id="Layer_1" xmlns="http://www.w3.org/2000/svg" xmlns:xlink="http://www.w3.org/1999/xlink" x="0px" y="0px"
	 width="100px" height="100px" viewBox="0 0 100 100" enable-background="new 0 0 100 100" xml:space="preserve">
<path fill="none" stroke="#000000" stroke-width="5" stroke-miterlimit="10" d="M37.284,47.07"/>
<path fill="none" stroke="#000000" stroke-width="5" stroke-miterlimit="10" d="M32.031,73.813
	c-0.453,1.293-2.969,2.965-3.422,4.258c-0.637,1.816,0,7.683,0,7.683h42.782c0-0.003,0.637-5.887,0-7.703
	c-0.453-1.293-2.969-2.983-3.423-4.276c-1.698-4.847-1.345-15.563-2.44-20.532c-0.332-1.521-1.41-3.623-2.473-5.577l-0.93-1.789
	L93.014,15.4"/>
<path fill="none" stroke="#000000" stroke-width="5" stroke-miterlimit="10" d="M38.908,43.992
	c1.094-2.307,3.303-7.306,4.901-10.952c-2.67-1.866-4.42-4.958-4.42-8.462c0-5.702,4.622-10.324,10.325-10.324
	c5.702,0,10.325,4.622,10.325,10.324c0,3.312-1.564,6.252-3.99,8.141c1.533,3.502,3.708,8.431,4.883,10.937l1.193,1.844l6.125-5.375
	l-3.876-5.389l9.839,10.586"/>
<path fill="none" stroke="#000000" stroke-width="5" stroke-miterlimit="10" d="M32.161,72.284
	c-7.29-1.138-11.646-6.737-11.646-13.624c0-7.615,6.174-13.788,13.789-13.788c7.615,0,13.788,6.173,13.788,13.788
	s-6.173,13.789-13.788,13.789C33.574,72.449,32.859,72.395,32.161,72.284"/>
</svg>
